<?xml version="1.0" encoding="UTF-8"?>
<svg version="1.1" xmlns="http://www.w3.org/2000/svg" width="247" height="207">
<path d="M0 0 C81.51 0 163.02 0 247 0 C247 68.31 247 136.62 247 207 C165.49 207 83.98 207 0 207 C0 138.69 0 70.38 0 0 Z " fill="#3C3F58" transform="translate(0,0)"/>
<path d="M0 0 C34.32 0 68.64 0 104 0 C104 0.66 104 1.32 104 2 C101.86124707 3.55836485 99.61847045 4.89266425 97.359375 6.26953125 C94.58547469 8.30403098 92.84229187 10.08303788 91 13 C90.50444404 16.64233634 90.49981018 20.14744661 90.46875 23.8203125 C90 27 90 27 88.09375 28.9296875 C86 30 86 30 84 30 C84 30.66 84 31.32 84 32 C80.39818086 33.80090957 76.01849593 33.70598499 72.02929688 34.07421875 C66.53410631 34.67406379 63.07930037 35.88912674 59.19921875 39.828125 C57.65455996 42.6256178 57.69912571 44.57551997 57.8125 47.75 C57.83957031 48.73484375 57.86664063 49.7196875 57.89453125 50.734375 C57.94673828 51.85585937 57.94673828 51.85585937 58 53 C53.328125 53.2265625 53.328125 53.2265625 50.375 51.1875 C48.536868 49.49448368 46.72089206 47.81146533 45 46 C46.27721526 50.99275057 48.17330957 53.57611908 52 57 C50.70987334 59.82482708 49.32286866 61.8825812 47.1875 64.125 C43.12966224 68.73119422 39 74.71614832 39 81 C39.63615234 79.91332031 39.63615234 79.91332031 40.28515625 78.8046875 C43.95228247 72.75997396 47.3523 68.2645898 53 64 C53 67.38928559 52.41233384 68.20729197 50.5625 70.9375 C46.32405231 77.20460641 46.34282674 83.58060908 47 91 C48.29323106 96.03289286 50.52916333 98.99852913 54.875 101.8125 C57.35946493 103.21030177 59.81706116 104.35653578 62.4375 105.5 C65 107 65 107 66.125 109.4375 C66 112 66 112 64.3125 114.3125 C62 116 62 116 58 116 C58 117.32 58 118.64 58 120 C60.31 119.67 62.62 119.34 65 119 C65.12375 119.969375 65.2475 120.93875 65.375 121.9375 C65.58125 122.948125 65.7875 123.95875 66 125 C66.66 125.33 67.32 125.66 68 126 C68.33 124.02 68.66 122.04 69 120 C69.99 121.485 69.99 121.485 71 123 C71.33 121.02 71.66 119.04 72 117 C72.33 117 72.66 117 73 117 C73.19335938 117.67546875 73.38671875 118.3509375 73.5859375 119.046875 C73.97652344 120.38492188 73.97652344 120.38492188 74.375 121.75 C74.63023438 122.63171875 74.88546875 123.5134375 75.1484375 124.421875 C76.52801939 128.59859081 77.26005099 130.50670066 81 133 C83.38677076 133.29452584 85.78626094 133.4928217 88.1875 133.625 C89.45980469 133.69976562 90.73210937 133.77453125 92.04296875 133.8515625 C93.50669922 133.92503906 93.50669922 133.92503906 95 134 C96.86557521 139.88533331 96.30381521 146.47565106 96.35009766 152.59619141 C96.3665524 154.18455769 96.39370193 155.7728532 96.43212891 157.36083984 C96.73053826 169.78764329 95.60748239 180.6820904 87 190.5 C77.03155713 200.76453524 60.17362685 200.82074841 46.62866211 201.28637695 C36.38686166 201.64008008 25.34714638 202.32642681 16 207 C10.72 207 5.44 207 0 207 C0 138.69 0 70.38 0 0 Z " fill="#3D415B" transform="translate(0,0)"/>
<path d="M0 0 C5.08565915 6.41235284 4.61110117 13.08012881 4 21 C2.71582026 26.42885465 1.10203936 31.34694095 -2 36 C-1.67 35.67 -1.34 35.34 -1 35 C0.51165654 34.60851239 2.03469632 34.26027543 3.5625 33.9375 C4.38878906 33.76089844 5.21507812 33.58429688 6.06640625 33.40234375 C7.02353516 33.20318359 7.02353516 33.20318359 8 33 C5.85754282 37.79773656 4.25087629 40.84612404 0 44 C-1.71567661 47.50294871 -1.71567661 47.50294871 -3 51 C-3.33 51.66 -3.66 52.32 -4 53 C-2.02 52.01 -2.02 52.01 0 51 C0.33 53.64 0.66 56.28 1 59 C1.99 59.33 2.98 59.66 4 60 C4 58.35 4 56.7 4 55 C4.66 55.66 5.32 56.32 6 57 C6.33 54.03 6.66 51.06 7 48 C7.99 48.33 8.98 48.66 10 49 C9.835 50.0725 9.67 51.145 9.5 52.25 C8.59008133 59.54234823 8.50772948 66.80198925 10 74 C11.81254776 88.03869538 7.14097534 96.72872507 -1.015625 107.71484375 C-3.7012059 110.94337904 -5.97729366 113.5652805 -10 115 C-12.64628605 115.16734285 -15.1714115 115.23383489 -17.8125 115.1875 C-18.84213867 115.1865332 -18.84213867 115.1865332 -19.89257812 115.18554688 C-24.34906121 115.14760142 -28.60227635 114.7185823 -33 114 C-30.36 114.99 -27.72 115.98 -25 117 C-25 125.58 -25 134.16 -25 143 C-23.35 143.33 -21.7 143.66 -20 144 C-18.50919922 144.69416016 -18.50919922 144.69416016 -16.98828125 145.40234375 C-11.65131463 147.77352908 -5.90408789 148.54997223 -0.1875 149.5625 C1.61412598 149.8867395 1.61412598 149.8867395 3.45214844 150.2175293 C27.2673337 155.57324713 27.2673337 155.57324713 50.3046875 152.16796875 C54.51628783 148.78037718 55.70608978 145.49642263 56.31640625 140.3125 C56.56676365 134.36853075 56.12985551 130.601839 52 126 C48.57429455 123.71619637 47.19652877 123.72823389 43.16015625 123.65625 C42.01482422 123.62660156 40.86949219 123.59695312 39.68945312 123.56640625 C37.89411133 123.53353516 37.89411133 123.53353516 36.0625 123.5 C33.69904358 123.45658697 31.33572152 123.40485231 28.97265625 123.34375 C27.92343994 123.32505859 26.87422363 123.30636719 25.79321289 123.28710938 C23.03286429 123.00337806 21.35681991 122.41769987 19 121 C19.34024129 117.95353186 19.66211113 116.36388032 21.77734375 114.0859375 C22.49019531 113.52132812 23.20304688 112.95671875 23.9375 112.375 C26.55149144 110.27811394 28.11077516 108.83383726 30 106 C31.43791516 106.14168137 32.8753237 106.28851043 34.3125 106.4375 C35.51326172 106.55931641 35.51326172 106.55931641 36.73828125 106.68359375 C39 107 39 107 42 108 C42 110.97 42 113.94 42 117 C45.69366151 117.22926175 49.31377409 117.37724534 53 117 C53.66 116.29875 54.32 115.5975 55 114.875 C55.66 114.25625 56.32 113.6375 57 113 C62.94136587 113.26406071 68.39103808 115.13034603 74 117 C74 130.86 74 144.72 74 159 C-2.23 159 -78.46 159 -157 159 C-150.23106318 152.23106318 -135.62720711 152.63852691 -126.66137695 152.35864258 C-120.63553787 152.14758498 -114.76892714 151.56187973 -108.8125 150.625 C-108.05928467 150.5108374 -107.30606934 150.3966748 -106.5300293 150.27905273 C-97.63570226 148.80209851 -90.63847574 147.06383389 -84.93212891 139.72436523 C-77.5316913 129.28950508 -77.32949115 119.18848859 -77.625 106.9375 C-77.64154935 105.33140161 -77.65588638 103.72527883 -77.66796875 102.11914062 C-77.55060914 94.44570437 -77.55060914 94.44570437 -79 87 C-80.32064453 86.97873047 -80.32064453 86.97873047 -81.66796875 86.95703125 C-91.16620345 86.56698166 -91.16620345 86.56698166 -95.125 83.875 C-98.75539296 78.30839746 -100.7472688 73.72541922 -100 67 C-98.5 64.0625 -98.5 64.0625 -97 62 C-93.6875 62.1875 -93.6875 62.1875 -90 63 C-88.3125 65.1875 -88.3125 65.1875 -87 68 C-84.67432234 71.751093 -82.73812878 74.59691721 -79 77 C-79.32742187 76.29488281 -79.65484375 75.58976562 -79.9921875 74.86328125 C-81.08400722 71.76132833 -81.20385396 69.45993947 -81.125 66.1875 C-81.10695313 65.21167969 -81.08890625 64.23585938 -81.0703125 63.23046875 C-81.04710938 62.49441406 -81.02390625 61.75835937 -81 61 C-77.3613918 59.91615926 -73.79272882 58.95300466 -70.0625 58.25 C-50.01600969 53.89802689 -31.19517469 43.76298167 -17 29 C-18.41167747 34.26170694 -20.74850232 37.72171358 -24 42 C-18.31052821 39.68206705 -15.11218179 35.76765043 -12.6875 30.25 C-9.41298107 21.23841742 -11.19010166 13.94818817 -14 5 C-9.40481537 9.20903466 -7.83997657 14.60283519 -7.5625 20.6875 C-7.73239677 27.09360757 -9.89455651 33.00324578 -12 39 C-3.49761159 29.93078569 0.40375577 20.57434545 0.125 8.0625 C0.11597656 7.28326172 0.10695312 6.50402344 0.09765625 5.70117188 C0.07433691 3.80064553 0.03847586 1.90027992 0 0 Z " fill="#EDCAA6" transform="translate(173,48)"/>
<path d="M0 0 C1.32 0.33 2.64 0.66 4 1 C4 2.65 4 4.3 4 6 C3.67 6 3.34 6 3 6 C1.16817769 15.3571536 1.16817769 15.3571536 4 24 C4.66 24.66 5.32 25.32 6 26 C5.505 24.02 5.505 24.02 5 22 C5.66 21.67 6.32 21.34 7 21 C7 19.02 7 17.04 7 15 C7.99 15.33 8.98 15.66 10 16 C9.9175 17.0725 9.835 18.145 9.75 19.25 C9.63762783 23.04009265 9.63762783 23.04009265 12 25.4375 C12.66 25.953125 13.32 26.46875 14 27 C12.35 27 10.7 27 9 27 C9.639375 27.515625 10.27875 28.03125 10.9375 28.5625 C13.56618329 31.6691257 13.43290856 34.03035989 14 38 C16.28889743 40.92031741 18.60487328 42.54494569 22 44 C21.01 44 20.02 44 19 44 C20.32 48.62 21.64 53.24 23 58 C26.63 58.66 30.26 59.32 34 60 C34.99 56.37 35.98 52.74 37 49 C42.46108889 47.5997208 46.69276568 48.57294366 52 50 C51.360625 50.598125 50.72125 51.19625 50.0625 51.8125 C46.24876592 55.85736948 47 58.10551349 47 64 C52.94 65.65 58.88 67.3 65 69 C65 70.65 65 72.3 65 74 C62.07247268 73.52526584 59.17735758 73.04273985 56.29296875 72.34765625 C53.50074371 71.71594804 50.85932721 71.16686925 48 71 C45.70784955 72.79191032 45.70784955 72.79191032 44 75 C39.9287599 75.36350358 36.97652689 74.99413172 33 74 C33 71.03 33 68.06 33 65 C28.95056811 64.22025502 25.12413539 63.68884401 21 64 C18.27498304 65.89682553 16.81098297 68.2624676 15 71 C14.236875 71.556875 13.47375 72.11375 12.6875 72.6875 C10.61223416 74.30159565 10.35261427 75.44354653 10 78 C13.33929291 79.00428361 16.38865394 79.12430152 19.8671875 79.140625 C21.56681641 79.16962891 21.56681641 79.16962891 23.30078125 79.19921875 C25.67561153 79.23295951 28.05071273 79.25129341 30.42578125 79.25390625 C40.1215159 79.46300836 40.1215159 79.46300836 43.6953125 82.296875 C47.95836419 87.29692885 48.45123446 90.68127428 48.3125 97.17578125 C47.67793639 102.91064985 45.7494139 106.58893979 41.2734375 110.19921875 C28.73859032 117.0948805 4.36467288 110.01448926 -8.875 107.6875 C-9.99165039 107.49905518 -11.10830078 107.31061035 -12.25878906 107.11645508 C-13.34643555 106.91689209 -14.43408203 106.7173291 -15.5546875 106.51171875 C-16.98530518 106.25588013 -16.98530518 106.25588013 -18.44482422 105.99487305 C-23.79604549 104.49739834 -28.87064837 102.13722985 -34 100 C-34 91.42 -34 82.84 -34 74 C-35.65 73.67 -37.3 73.34 -39 73 C-40.6792238 72.36562656 -42.35008418 71.70710678 -44 71 C-41.69779186 70.23259729 -40.24978593 69.94731788 -37.8515625 70.453125 C-34.25198211 71.14345549 -30.71437916 71.26163817 -27.0625 71.3125 C-26.37220703 71.34150391 -25.68191406 71.37050781 -24.97070312 71.40039062 C-19.78107667 71.46433863 -16.95540377 70.3009125 -13 67 C-10.30539822 63.9023123 -8.19399905 60.46524235 -6 57 C-5.41347656 56.15179688 -4.82695312 55.30359375 -4.22265625 54.4296875 C0.94873192 46.27714615 1.3638589 37.78853077 -0.51953125 28.4140625 C-1.90989967 21.42830896 -1.12844106 13.93070543 -0.22265625 6.9140625 C0.04648706 4.60037442 0.07505459 2.32669243 0 0 Z " fill="#45435A" transform="translate(182,91)"/>
<path d="M0 0 C4.29 0.33 8.58 0.66 13 1 C13 52.81 13 104.62 13 158 C1.75 155.75 1.75 155.75 -2.125 154.375 C-2.87007812 154.11460937 -3.61515625 153.85421875 -4.3828125 153.5859375 C-4.91648438 153.39257812 -5.45015625 153.19921875 -6 153 C-6.34615998 147.34605369 -5.43425238 143.96993194 -3 139 C-6.96 138.67 -10.92 138.34 -15 138 C-15.12375 139.423125 -15.2475 140.84625 -15.375 142.3125 C-15.67875982 145.80573798 -15.97649676 146.96474514 -18 150 C-21.63 149.34 -25.26 148.68 -29 148 C-29.45375 146.659375 -29.9075 145.31875 -30.375 143.9375 C-30.6534375 143.11636719 -30.931875 142.29523438 -31.21875 141.44921875 C-31.8687433 139.41148974 -32.38898189 137.33293476 -32.875 135.25 C-33.78488931 131.83643788 -33.78488931 131.83643788 -36.5625 129.5 C-39.64339421 126.3401085 -39.463756 124.28995196 -40 120 C-41.92393551 117.1125127 -41.92393551 117.1125127 -44 115 C-42.35 115 -40.7 115 -39 115 C-39.66 114.649375 -40.32 114.29875 -41 113.9375 C-43 112 -43 112 -43.3125 108.4375 C-43 105 -43 105 -42 103 C-40.88625 102.525625 -39.7725 102.05125 -38.625 101.5625 C-34.60551982 99.66187014 -32.26182252 97.2396123 -29.3125 93.9375 C-23.72934695 87.81563976 -16.98331769 84.4940748 -9.5246582 81.05639648 C-1.85885273 77.40218965 4.34312826 72.2941414 7.4375 64.125 C11.07739573 52.74636943 10.244254 41.10779119 5.046875 30.46484375 C3.56964481 26.98673834 4.12840062 24.62048975 5 21 C5.77679246 14.09002525 4.86659596 9.68137149 1.09375 3.8125 C0 2 0 2 0 0 Z " fill="#D6BAC1" transform="translate(234,2)"/>
<path d="M0 0 C14.85 0 29.7 0 45 0 C43.02 2.31 41.04 4.62 39 7 C31.06891998 16.42377762 27.61396736 26.20289699 25.43115234 38.18676758 C24.5043103 43.16996116 23.33078603 47.47757934 21 52 C20.01 52.66 19.02 53.32 18 54 C17.72929687 54.66515625 17.45859375 55.3303125 17.1796875 56.015625 C16 58 16 58 13.3203125 59.046875 C11.73863281 59.39492187 11.73863281 59.39492187 10.125 59.75 C9.07570313 59.99234375 8.02640625 60.2346875 6.9453125 60.484375 C4 61 4 61 0 61 C0 40.87 0 20.74 0 0 Z " fill="#82A1B7" transform="translate(0,0)"/>
<path d="M0 0 C1.43791516 0.14168137 2.8753237 0.28851043 4.3125 0.4375 C5.11300781 0.51871094 5.91351563 0.59992188 6.73828125 0.68359375 C9 1 9 1 12 2 C12 4.97 12 7.94 12 11 C15.69366151 11.22926175 19.31377409 11.37724534 23 11 C23.66 10.29875 24.32 9.5975 25 8.875 C25.66 8.25625 26.32 7.6375 27 7 C32.94136587 7.26406071 38.39103808 9.13034603 44 11 C44 24.86 44 38.72 44 53 C25.59459459 53 25.59459459 53 19 51.5 C18.3090625 51.35691406 17.618125 51.21382812 16.90625 51.06640625 C15.26782581 50.72506788 13.63333933 50.36489496 12 50 C12 49.67 12 49.34 12 49 C13.051875 48.773125 14.10375 48.54625 15.1875 48.3125 C19.19801782 47.15967909 21.34542857 45.26133061 24 42 C26.51998529 36.73013603 26.69938519 31.74675542 26 26 C24.01031547 22.08924075 22.63466354 20.42310902 19 18 C16.25627849 17.66411978 16.25627849 17.66411978 13.16015625 17.65625 C12.01482422 17.62660156 10.86949219 17.59695312 9.68945312 17.56640625 C8.49255859 17.54449219 7.29566406 17.52257812 6.0625 17.5 C3.69904358 17.45658697 1.33572152 17.40485231 -1.02734375 17.34375 C-2.07656006 17.32505859 -3.12577637 17.30636719 -4.20678711 17.28710938 C-6.96713571 17.00337806 -8.64318009 16.41769987 -11 15 C-10.65975871 11.95353186 -10.33788887 10.36388032 -8.22265625 8.0859375 C-7.50980469 7.52132812 -6.79695312 6.95671875 -6.0625 6.375 C-3.44850856 4.27811394 -1.88922484 2.83383726 0 0 Z " fill="#D47080" transform="translate(203,154)"/>
<path d="M0 0 C5.08565915 6.41235284 4.61110117 13.08012881 4 21 C2.71582026 26.42885465 1.10203936 31.34694095 -2 36 C-1.67 35.67 -1.34 35.34 -1 35 C0.51165654 34.60851239 2.03469632 34.26027543 3.5625 33.9375 C4.38878906 33.76089844 5.21507812 33.58429688 6.06640625 33.40234375 C7.02353516 33.20318359 7.02353516 33.20318359 8 33 C5.85754282 37.79773656 4.25087629 40.84612404 0 44 C-0.391875 45.155 -0.78375 46.31 -1.1875 47.5 C-3.18243567 51.35228957 -3.50675668 51.56571083 -7.375 52.8125 C-8.91631641 53.20969499 -10.45795338 53.60564945 -12 54 C-12.928125 54.45375 -13.85625 54.9075 -14.8125 55.375 C-15.534375 55.58125 -16.25625 55.7875 -17 56 C-17.59683594 55.51144531 -18.19367188 55.02289063 -18.80859375 54.51953125 C-21.60886509 52.57781013 -22.93107704 52.83212957 -26.25 53.3125 C-27.14203125 53.43238281 -28.0340625 53.55226562 -28.953125 53.67578125 C-29.62859375 53.78277344 -30.3040625 53.88976562 -31 54 C-30.97679687 54.59167969 -30.95359375 55.18335938 -30.9296875 55.79296875 C-30.82588536 60.33801959 -30.86291643 63.85940059 -33 68 C-36.92556076 68.30788712 -39.3957736 68.30854114 -42.9375 66.5 C-45.15676121 63.80998641 -45.32070848 63.19281523 -45.375 59.875 C-45 56 -45 56 -44 54 C-45.61013585 54.73709784 -47.21292391 55.49025857 -48.8125 56.25 C-49.70582031 56.66765625 -50.59914063 57.0853125 -51.51953125 57.515625 C-54.09807856 58.82434662 -54.09807856 58.82434662 -55.46484375 61.13671875 C-57 63 -57 63 -59.671875 63.50390625 C-61.19554687 63.53291016 -61.19554687 63.53291016 -62.75 63.5625 C-69.63781662 63.93638631 -73.71398463 64.90853913 -78.9375 69.6875 C-79.618125 70.450625 -80.29875 71.21375 -81 72 C-81 68.37 -81 64.74 -81 61 C-77.3613918 59.91615926 -73.79272882 58.95300466 -70.0625 58.25 C-50.01600969 53.89802689 -31.19517469 43.76298167 -17 29 C-18.41167747 34.26170694 -20.74850232 37.72171358 -24 42 C-18.31052821 39.68206705 -15.11218179 35.76765043 -12.6875 30.25 C-9.41298107 21.23841742 -11.19010166 13.94818817 -14 5 C-9.40481537 9.20903466 -7.83997657 14.60283519 -7.5625 20.6875 C-7.73239677 27.09360757 -9.89455651 33.00324578 -12 39 C-3.49761159 29.93078569 0.40375577 20.57434545 0.125 8.0625 C0.11597656 7.28326172 0.10695313 6.50402344 0.09765625 5.70117188 C0.07433691 3.80064553 0.03847586 1.90027992 0 0 Z " fill="#EEBF8B" transform="translate(173,48)"/>
<path d="M0 0 C1.08667969 0.19464844 2.17335937 0.38929688 3.29296875 0.58984375 C4.54013672 0.82380859 4.54013672 0.82380859 5.8125 1.0625 C4.8534375 1.9596875 4.8534375 1.9596875 3.875 2.875 C0.06126592 6.91986948 0.8125 9.16801349 0.8125 15.0625 C6.7525 16.7125 12.6925 18.3625 18.8125 20.0625 C18.8125 21.7125 18.8125 23.3625 18.8125 25.0625 C15.88497268 24.58776584 12.98985758 24.10523985 10.10546875 23.41015625 C7.31324371 22.77844804 4.67182721 22.22936925 1.8125 22.0625 C-0.47965045 23.85441032 -0.47965045 23.85441032 -2.1875 26.0625 C-6.2587401 26.42600358 -9.21097311 26.05663172 -13.1875 25.0625 C-13.1875 22.0925 -13.1875 19.1225 -13.1875 16.0625 C-17.23693189 15.28275502 -21.06336461 14.75134401 -25.1875 15.0625 C-27.91251696 16.95932553 -29.37651703 19.3249676 -31.1875 22.0625 C-31.950625 22.619375 -32.71375 23.17625 -33.5 23.75 C-35.57526584 25.36409565 -35.83488573 26.50604653 -36.1875 29.0625 C-32.84820709 30.06678361 -29.79884606 30.18680152 -26.3203125 30.203125 C-24.62068359 30.23212891 -24.62068359 30.23212891 -22.88671875 30.26171875 C-20.51188847 30.29545951 -18.13678727 30.31379341 -15.76171875 30.31640625 C-6.0659841 30.52550836 -6.0659841 30.52550836 -2.4921875 33.359375 C1.77086419 38.35942885 2.26373446 41.74377428 2.125 48.23828125 C1.4711298 54.14763318 -0.70619911 57.79722216 -5.1875 61.625 C-8.1875 63.0625 -8.1875 63.0625 -10.5625 62.8125 C-11.09875 62.565 -11.635 62.3175 -12.1875 62.0625 C-11.5275 62.0625 -10.8675 62.0625 -10.1875 62.0625 C-10.1875 61.4025 -10.1875 60.7425 -10.1875 60.0625 C-8.85416667 58.72916667 -7.52083333 57.39583333 -6.1875 56.0625 C-4.33143043 50.49429128 -4.27597084 45.03140298 -6.75 39.6875 C-10.79555633 35.33074703 -13.54926347 33.17113327 -19.5078125 32.92578125 C-21.95863175 32.97521391 -24.40922301 33.03769145 -26.859375 33.11328125 C-32.01702289 33.03458474 -35.48764775 31.76235225 -39.1875 28.0625 C-39.8125 24.875 -39.8125 24.875 -39.1875 21.0625 C-37.35238328 19.01875052 -35.41225815 17.40343564 -33.23046875 15.73828125 C-30.22372462 13.2719462 -28.44436926 11.35665046 -27.67578125 7.484375 C-27.61777344 6.60265625 -27.55976563 5.7209375 -27.5 4.8125 C-27.43425781 3.92046875 -27.36851562 3.0284375 -27.30078125 2.109375 C-27.26339844 1.43390625 -27.22601563 0.7584375 -27.1875 0.0625 C-25.1875 1.0625 -25.1875 1.0625 -24.5546875 2.91015625 C-24.09895833 4.9609375 -23.64322917 7.01171875 -23.1875 9.0625 C-19.5575 9.7225 -15.9275 10.3825 -12.1875 11.0625 C-12.00574219 10.28003906 -11.82398438 9.49757812 -11.63671875 8.69140625 C-11.38535156 7.67949219 -11.13398438 6.66757813 -10.875 5.625 C-10.63136719 4.61566406 -10.38773438 3.60632813 -10.13671875 2.56640625 C-9.82347656 1.74011719 -9.51023438 0.91382813 -9.1875 0.0625 C-5.61369658 -1.12876781 -3.67866698 -0.6724445 0 0 Z " fill="#4F4752" transform="translate(228.1875,139.9375)"/>
<path d="M0 0 C10.63027875 -0.65083339 17.18214179 3.51766964 26 9 C25.505 7.515 25.505 7.515 25 6 C34.25343571 5.17380038 39.06215171 9.28647788 46 15 C46.99 15.495 46.99 15.495 48 16 C48 16.66 48 17.32 48 18 C43.14036821 17.39254603 39.2594482 15.27241033 35 13 C35 13.99 35 14.98 35 16 C34.21625 15.835 33.4325 15.67 32.625 15.5 C30.11791961 14.9376293 30.11791961 14.9376293 28 15 C28.495 15.433125 28.99 15.86625 29.5 16.3125 C31 18 31 18 31 21 C26.79726739 20.47465842 23.69173802 18.89592416 20.0625 16.83984375 C17.41343344 15.76115187 15.82900629 15.466479 13 16 C10.95439931 18.72157672 9.52003408 21.5810434 7.94140625 24.59375 C6 27 6 27 2.96484375 27.34375 C1.98644531 27.2303125 1.00804687 27.116875 0 27 C-0.99 27 -1.98 27 -3 27 C-3.66 26.67 -4.32 26.34 -5 26 C-5.103125 26.78375 -5.20625 27.5675 -5.3125 28.375 C-6 31 -6 31 -9 33 C-10.093125 32.731875 -11.18625 32.46375 -12.3125 32.1875 C-18.09417796 31.2203048 -22.83863519 34.55973 -27.73046875 37.23828125 C-30.45613282 38.70694851 -33.10287632 39.92517257 -36 41 C-31.44692138 35.2487428 -26.37696151 29.7425765 -20 26 C-16.6875 25.77734375 -16.6875 25.77734375 -14 26 C-13.7525 25.2575 -13.505 24.515 -13.25 23.75 C-11.81730966 20.59808126 -10.87152775 18.96472951 -8 17 C-5.17937669 16.96757904 -2.79404022 17.44119196 0 18 C0 16.68 0 15.36 0 14 C1.65 14 3.3 14 5 14 C3.68 12.02 2.36 10.04 1 8 C7.75 8.875 7.75 8.875 10 10 C7.51640574 7.37448607 5.29752806 5.17851684 2.1875 3.3125 C1.465625 2.879375 0.74375 2.44625 0 2 C0 1.34 0 0.68 0 0 Z " fill="#9098AB" transform="translate(151,17)"/>
<path d="M0 0 C6.85460509 0.48686915 13.33395256 1.36457086 20 3 C21.37592297 3.31805081 22.75226647 3.63428502 24.12890625 3.94921875 C25.6484903 4.29925001 27.16802102 4.64951289 28.6875 5 C29.41275879 5.16604736 30.13801758 5.33209473 30.88525391 5.50317383 C31.5869873 5.66712646 32.2887207 5.8310791 33.01171875 6 C33.94697388 6.2165625 33.94697388 6.2165625 34.90112305 6.4375 C37.63613888 7.17048551 40.3137719 8.10459063 43 9 C43 16.59 43 24.18 43 32 C31.75 29.75 31.75 29.75 27.875 28.375 C27.12992188 28.11460937 26.38484375 27.85421875 25.6171875 27.5859375 C24.81667969 27.29589844 24.81667969 27.29589844 24 27 C23.65384002 21.34605369 24.56574762 17.96993194 27 13 C23.04 12.67 19.08 12.34 15 12 C14.87625 13.423125 14.7525 14.84625 14.625 16.3125 C14.32124018 19.80573798 14.02350324 20.96474514 12 24 C8.37 23.34 4.74 22.68 1 22 C-0.79605001 16.84611736 -2.09439953 12.43360284 -3 7 C2.61 7.33 8.22 7.66 14 8 C14 6.35 14 4.7 14 3 C12.98679688 2.92652344 12.98679688 2.92652344 11.953125 2.8515625 C11.06109375 2.77679688 10.1690625 2.70203125 9.25 2.625 C8.36828125 2.55539063 7.4865625 2.48578125 6.578125 2.4140625 C4.00933618 2.00149945 2.24158985 1.28839043 0 0 Z " fill="#B1ABA8" transform="translate(204,128)"/>
<path d="M0 0 C-0.71027344 0.33773437 -1.42054687 0.67546875 -2.15234375 1.0234375 C-3.07144531 1.46945313 -3.99054688 1.91546875 -4.9375 2.375 C-5.85402344 2.81585938 -6.77054688 3.25671875 -7.71484375 3.7109375 C-10.12903802 4.79199162 -10.12903802 4.79199162 -11 7 C-10.29875 6.54625 -9.5975 6.0925 -8.875 5.625 C-3.50770309 2.59131044 1.10430595 1.72384811 7.25 1.75 C8.47203125 1.74484375 9.6940625 1.7396875 10.953125 1.734375 C14 2 14 2 16 4 C12.53277438 5.15574187 10.08091026 4.92597152 6.4375 4.75 C-0.51422857 4.6706753 -5.23960945 6.1722895 -11 10 C-12.29633621 11.06645115 -12.29633621 11.06645115 -12.0625 13.5625 C-12.041875 14.366875 -12.02125 15.17125 -12 16 C-11.34 16.33 -10.68 16.66 -10 17 C-10 15.68 -10 14.36 -10 13 C-9.01 13 -8.02 13 -7 13 C-7.75 17.75 -7.75 17.75 -10 20 C-12.3828125 20.4140625 -12.3828125 20.4140625 -15.125 20.625 C-16.03507812 20.69976562 -16.94515625 20.77453125 -17.8828125 20.8515625 C-18.93082031 20.92503906 -18.93082031 20.92503906 -20 21 C-17.36 21 -14.72 21 -12 21 C-12 21.66 -12 22.32 -12 23 C-12.53109375 23.23074219 -13.0621875 23.46148437 -13.609375 23.69921875 C-18.20167309 25.81938557 -21.11844851 27.67767276 -24 32 C-23.03900391 31.27683594 -23.03900391 31.27683594 -22.05859375 30.5390625 C-17.1085213 26.9242555 -13.04379942 24.1824825 -7 23 C-7 23.99 -7 24.98 -7 26 C-9.62596061 27.84526962 -11.95127546 28.98375849 -15 30 C-16.08512578 31.83603818 -16.08512578 31.83603818 -17 34 C-17.83857544 35.38456381 -18.69294986 36.7596765 -19.5625 38.125 C-23.39567812 44.15344037 -23.63723163 48.83787548 -23 56 C-21.70897651 60.58866635 -19.82253105 63.30541822 -16.1875 66.375 C-12.99498412 68.13248761 -12.99498412 68.13248761 -9.25 69.0625 C-6 70 -6 70 -4 73 C-3.34 73.33 -2.68 73.66 -2 74 C-2.33 76.97 -2.66 79.94 -3 83 C-2.67 82.34 -2.34 81.68 -2 81 C-1.01 81 -0.02 81 1 81 C0.67 83.97 0.34 86.94 0 90 C-0.99 89.34 -1.98 88.68 -3 88 C-3.33 89.32 -3.66 90.64 -4 92 C-5.485 91.505 -5.485 91.505 -7 91 C-7.33 89.35 -7.66 87.7 -8 86 C-9.98 86 -11.96 86 -14 86 C-14 84.68 -14 83.36 -14 82 C-11.03 81.01 -11.03 81.01 -8 80 C-7.23043864 77.65466049 -7.23043864 77.65466049 -7 75 C-9.1598119 72.1994439 -11.75873812 71.04946773 -14.9375 69.625 C-19.95597537 67.18515899 -22.67555381 64.82227443 -25.07421875 59.7109375 C-27.02268062 54.00531497 -27.08327594 46.81031252 -24.75 41.1875 C-22.87107403 37.76517055 -20.9885811 34.36001634 -19 31 C-24.97557907 35.39022136 -28.08872739 40.08281147 -31.6171875 46.5859375 C-32.07351562 47.38257813 -32.52984375 48.17921875 -33 49 C-33.33 49 -33.66 49 -34 49 C-33.20890696 39.50688347 -29.11246394 33.69444216 -22.609375 26.8828125 C-20.78341608 25.15943576 -20.78341608 25.15943576 -21 23 C-22.62449243 21.29220027 -24.29220027 19.62449243 -26 18 C-27 17 -27 17 -27.0625 14.4375 C-27.041875 13.633125 -27.02125 12.82875 -27 12 C-24 13 -24 13 -21.625 15.5 C-18.9028844 18.09249105 -17.66070817 18.68622501 -14 19 C-14.33 18.34 -14.66 17.68 -15 17 C-15.63271084 13.06758198 -15.79389809 9.50840638 -13.90625 5.921875 C-10.65475621 1.80562223 -5.48060764 -2.74030382 0 0 Z " fill="#272C43" transform="translate(72,34)"/>
<path d="M0 0 C0.33 0 0.66 0 1 0 C0.44854729 5.23880078 -0.42922093 9.97350697 -2 15 C-0.02 14.34 1.96 13.68 4 13 C4.66 14.32 5.32 15.64 6 17 C5.525625 17.5775 5.05125 18.155 4.5625 18.75 C3.0515133 20.92582084 2.45963849 22.42602448 2 25 C3.32 25 4.64 25 6 25 C6 27.64 6 30.28 6 33 C4.54460677 33.13934616 3.0849339 33.23388817 1.625 33.3125 C0.81289062 33.37050781 0.00078125 33.42851562 -0.8359375 33.48828125 C-4 33 -4 33 -14 28 C-14 19.42 -14 10.84 -14 2 C-11.875625 1.855625 -9.75125 1.71125 -7.5625 1.5625 C-3.45880084 1.63463644 -3.45880084 1.63463644 0 0 Z " fill="#2B293B" transform="translate(164,163)"/>
<path d="M0 0 C3.3125 0.1875 3.3125 0.1875 7 1 C8.6875 3.1875 8.6875 3.1875 10 6 C13.00724413 10.92081263 13.00724413 10.92081263 17 15 C17.99 15 18.98 15 20 15 C20 17.64 20 20.28 20 23 C19.34 22.01 18.68 21.02 18 20 C17.01 19.67 16.02 19.34 15 19 C14.67 20.65 14.34 22.3 14 24 C6.08207005 24.77626764 6.08207005 24.77626764 2.125 21.9375 C-1.81831052 16.48645311 -3.75315846 11.77842614 -3 5 C-1.5 2.0625 -1.5 2.0625 0 0 Z " fill="#E0BF9E" transform="translate(76,110)"/>
<path d="M0 0 C1.66796875 1.1484375 1.66796875 1.1484375 3 3 C3.14453125 5.7421875 3.14453125 5.7421875 2.8125 8.875 C2.71582031 9.90367188 2.61914062 10.93234375 2.51953125 11.9921875 C2.01620912 14.90615771 1.20615742 17.30972295 0 20 C-3.92556076 20.30788712 -6.3957736 20.30854114 -9.9375 18.5 C-12.15676121 15.80998641 -12.32070848 15.19281523 -12.375 11.875 C-12 8 -12 8 -11 6 C-12.61013585 6.73709784 -14.21292391 7.49025857 -15.8125 8.25 C-16.70582031 8.66765625 -17.59914063 9.0853125 -18.51953125 9.515625 C-21.12075739 11.07226426 -22.26755117 12.56520705 -24 15 C-24.66 15 -25.32 15 -26 15 C-25.42121757 11.64306189 -24.60202168 10.18355221 -22 8 C-19.67995917 6.72286214 -17.38003049 5.52599835 -15 4.375 C-14.3709375 4.06304687 -13.741875 3.75109375 -13.09375 3.4296875 C-8.63868486 1.23990972 -5.02715507 -0.50271551 0 0 Z " fill="#495049" transform="translate(140,96)"/>
<path d="M0 0 C1.35368041 -0.05525226 2.70806235 -0.09334369 4.0625 -0.125 C4.81660156 -0.14820313 5.57070312 -0.17140625 6.34765625 -0.1953125 C9 0 9 0 16 2 C16 7.28 16 12.56 16 18 C9.43799785 16.79850665 3.27136074 15.27223215 -3 13 C-3.31563182 7.73946963 -2.66590937 4.55426184 0 0 Z " fill="#6E7076" transform="translate(231,142)"/>
<path d="M0 0 C4.29 0.33 8.58 0.66 13 1 C13 7.6 13 14.2 13 21 C11.68 21 10.36 21 9 21 C8.855625 21.94875 8.71125 22.8975 8.5625 23.875 C8 27 8 27 7 29 C6.01 28.67 5.02 28.34 4 28 C4.165 27.05125 4.33 26.1025 4.5 25.125 C5.60579219 16.81480414 5.7542088 11.06210257 1.09375 3.8125 C0 2 0 2 0 0 Z " fill="#D2C1C6" transform="translate(234,2)"/>
<path d="M0 0 C0 0.99 0 1.98 0 3 C-6.81796844 9.64087835 -17.03089577 14.99198495 -26 18 C-28.33203125 17.63671875 -28.33203125 17.63671875 -30 17 C-28.96939453 16.29423828 -28.96939453 16.29423828 -27.91796875 15.57421875 C-26.56638672 14.64029297 -26.56638672 14.64029297 -25.1875 13.6875 C-24.29417969 13.07261719 -23.40085937 12.45773438 -22.48046875 11.82421875 C-20.03391727 10.12668058 -20.03391727 10.12668058 -18.30078125 8.26953125 C-17 7 -17 7 -15 7 C-15 6.01 -15 5.02 -15 4 C-22.36775724 5.97032484 -29.49307706 7.90721377 -36.328125 11.36328125 C-37.15570313 11.67845703 -37.15570313 11.67845703 -38 12 C-38.66 11.67 -39.32 11.34 -40 11 C-35.97624586 8.39273185 -31.79017768 6.59738807 -27.3125 4.9375 C-26.60279053 4.67437012 -25.89308105 4.41124023 -25.16186523 4.14013672 C-16.67722999 1.06902884 -9.03383122 -0.29141391 0 0 Z " fill="#282A3F" transform="translate(146,84)"/>
<path d="M0 0 C3.5 0.3125 3.5 0.3125 7 1 C7.495 1.99 7.495 1.99 8 3 C7.29617187 3.06316406 6.59234375 3.12632813 5.8671875 3.19140625 C-2.13838057 4.18426391 -8.17899372 6.75141244 -15.1640625 10.5390625 C-18 12 -18 12 -20 12 C-20.16886719 12.78503906 -20.33773437 13.57007812 -20.51171875 14.37890625 C-22 17 -22 17 -25.51953125 18.15234375 C-27.66414793 18.5772771 -29.81387961 18.93772848 -31.97070312 19.29492188 C-37.64463683 20.42341008 -39.64476923 22.30267692 -43 27 C-43.33 27 -43.66 27 -44 27 C-44 23.37 -44 19.74 -44 16 C-40.3613918 14.91615926 -36.79272882 13.95300466 -33.0625 13.25 C-23.85008335 11.25003946 -6.74269535 6.74269535 0 0 Z " fill="#E7BD8E" transform="translate(136,93)"/>
<path d="M0 0 C0.33 3.96 0.66 7.92 1 12 C1.33 9.03 1.66 6.06 2 3 C4.5147159 5.5147159 4.26048615 7.08613823 4.2734375 10.52148438 C4.26570312 11.23626953 4.25796875 11.95105469 4.25 12.6875 C4.25773438 13.38294922 4.26546875 14.07839844 4.2734375 14.79492188 C4.25591784 19.48581202 3.66884384 23.55908334 2 28 C-1.18708757 30.07853537 -4.27016755 31.28272453 -8 32 C-8 32.66 -8 33.32 -8 34 C-8.66 33.67 -9.32 33.34 -10 33 C-9.73445312 32.50371094 -9.46890625 32.00742188 -9.1953125 31.49609375 C-8.84210938 30.81675781 -8.48890625 30.13742188 -8.125 29.4375 C-7.77695313 28.77621094 -7.42890625 28.11492187 -7.0703125 27.43359375 C-4.34000088 21.22562245 -3.72656941 15.72474974 -3.875 9.0625 C-3.88402344 8.28326172 -3.89304688 7.50402344 -3.90234375 6.70117188 C-3.92566309 4.80064553 -3.96152414 2.90027992 -4 1 C-2 0 -2 0 0 0 Z " fill="#424054" transform="translate(180,51)"/>
<path d="M0 0 C11.85102947 1.95599516 11.85102947 1.95599516 15 5 C15.25 8.4375 15.25 8.4375 15 12 C15.42854995 14.31036915 15.42854995 14.31036915 16 16 C11.91260179 17.30349829 9.06479562 16.81741229 5.0625 15.421875 C1.54707457 12.99836201 1.16546436 9.60853256 0.33984375 5.59375 C0 3 0 3 0 0 Z " fill="#B3B1AE" transform="translate(201,135)"/>
<path d="M0 0 C0.66 0.33 1.32 0.66 2 1 C3.53224178 6.20962207 3.9365153 11.16443002 1.4375 16.0625 C-0.996325 18.99557115 -3.48795953 21.21571236 -6.51171875 23.5078125 C-8.27568638 25.27640997 -8.60835572 26.56658354 -9 29 C-5.43928688 30.04882391 -1.94472103 30.30386953 1.75 30.5625 C2.92046875 30.64628906 4.0909375 30.73007813 5.296875 30.81640625 C6.63492188 30.90728516 6.63492188 30.90728516 8 31 C7.67 31.66 7.34 32.32 7 33 C0.49996356 33.35312069 -4.22590528 33.12763464 -10 30 C-12 28 -12 28 -12.625 24.8125 C-11.81737752 19.88600287 -9.89006195 18.6119052 -6.04296875 15.67578125 C-3.03622462 13.2094462 -1.25686926 11.29415046 -0.48828125 7.421875 C-0.43027344 6.54015625 -0.37226563 5.6584375 -0.3125 4.75 C-0.24675781 3.85796875 -0.18101562 2.9659375 -0.11328125 2.046875 C-0.07589844 1.37140625 -0.03851563 0.6959375 0 0 Z " fill="#4B3748" transform="translate(201,140)"/>
<path d="M0 0 C0.08121924 1.60332791 0.13929134 3.20784026 0.1875 4.8125 C0.23970703 6.15248047 0.23970703 6.15248047 0.29296875 7.51953125 C0 10 0 10 -1.38671875 11.82421875 C-3 13 -3 13 -5 13 C-5 13.66 -5 14.32 -5 15 C-7.52475462 16.26237731 -9.31200466 16.09856404 -12.125 16.0625 C-13.03507812 16.05347656 -13.94515625 16.04445313 -14.8828125 16.03515625 C-15.93082031 16.01775391 -15.93082031 16.01775391 -17 16 C-14.42248155 9.78363197 -7.61149213 0 0 0 Z " fill="#EAABB9" transform="translate(89,17)"/>
<path d="M0 0 C0.33 0 0.66 0 1 0 C1.45760607 5.7200759 0.63848132 8.55296727 -3 13 C-5.96363862 15.61385295 -8.24023174 16.46528936 -12.125 17.0625 C-16.01027004 17.58602501 -16.01027004 17.58602501 -19 20 C-21.28515625 20.2734375 -21.28515625 20.2734375 -24.0625 20.375 C-29.00743689 20.72588908 -32.71118703 21.85559351 -37.125 24.0625 C-39 25 -39 25 -42 26 C-40.15638095 21.35130465 -37.31589073 20.11839237 -32.953125 18.0390625 C-28.0614854 16.31793005 -23.15159756 16.09736696 -18 16 C-18 15.34 -18 14.68 -18 14 C-15.4385343 11.70351351 -14.52032428 11 -11 11 C-10.67 11.66 -10.34 12.32 -10 13 C-8.12119128 12.95231597 -8.12119128 12.95231597 -6 12 C-3.01719354 8.22762713 -1.31667565 4.60836476 0 0 Z " fill="#363A51" transform="translate(102,16)"/>
<path d="M0 0 C1.08667969 0.19464844 2.17335937 0.38929688 3.29296875 0.58984375 C4.54013672 0.82380859 4.54013672 0.82380859 5.8125 1.0625 C5.18859375 1.60390625 4.5646875 2.1453125 3.921875 2.703125 C1.50739712 5.40376322 0.89487083 7.31654252 0.0625 10.8125 C-0.17984375 11.79734375 -0.4221875 12.7821875 -0.671875 13.796875 C-0.84203125 14.54453125 -1.0121875 15.2921875 -1.1875 16.0625 C-3.1675 15.7325 -5.1475 15.4025 -7.1875 15.0625 C-6.5275 10.4425 -5.8675 5.8225 -5.1875 1.0625 C-6.71225697 5.63677092 -7.6226418 9.35534832 -8.1875 14.0625 C-9.5075 14.0625 -10.8275 14.0625 -12.1875 14.0625 C-11.87622484 12.47892541 -11.56342711 10.89565007 -11.25 9.3125 C-10.98896484 7.98992187 -10.98896484 7.98992187 -10.72265625 6.640625 C-10.54605469 5.78984375 -10.36945313 4.9390625 -10.1875 4.0625 C-10.06246094 3.31484375 -9.93742188 2.5671875 -9.80859375 1.796875 C-9.50115234 0.93835938 -9.50115234 0.93835938 -9.1875 0.0625 C-5.61369658 -1.12876781 -3.67866698 -0.6724445 0 0 Z " fill="#242120" transform="translate(228.1875,139.9375)"/>
<path d="M0 0 C1 3 1 3 0.2421875 4.796875 C-4.4776729 11.53953272 -10.73605283 14.53858871 -18 18 C-18.66 18.33 -19.32 18.66 -20 19 C-20 18.34 -20 17.68 -20 17 C-20.66 17 -21.32 17 -22 17 C-22 18.32 -22 19.64 -22 21 C-22.99 21 -23.98 21 -25 21 C-24.97679687 21.60328125 -24.95359375 22.2065625 -24.9296875 22.828125 C-24.91164062 23.62734375 -24.89359375 24.4265625 -24.875 25.25 C-24.85179687 26.03890625 -24.82859375 26.8278125 -24.8046875 27.640625 C-25.0171622 30.20731941 -25.71345895 31.7916067 -27 34 C-28.32 33.67 -29.64 33.34 -31 33 C-30.67 30.69 -30.34 28.38 -30 26 C-29.34 26 -28.68 26 -28 26 C-27.67 24.02 -27.34 22.04 -27 20 C-27.99 19.67 -28.98 19.34 -30 19 C-30 18.34 -30 17.68 -30 17 C-29.41992188 16.82984375 -28.83984375 16.6596875 -28.2421875 16.484375 C-23.23477627 14.93092069 -19.25092575 13.16347963 -15 10 C-14.21625 9.4225 -13.4325 8.845 -12.625 8.25 C-12.08875 7.8375 -11.5525 7.425 -11 7 C-12.15173355 9.46800047 -13.04783565 11.04783565 -15 13 C-10.50930926 11.77526616 -8.15626462 10.3817121 -5 7 C-4.34 7 -3.68 7 -3 7 C-2.690625 6.21625 -2.38125 5.4325 -2.0625 4.625 C-1 2 -1 2 0 0 Z " fill="#2E2C3E" transform="translate(205,75)"/>
<path d="M0 0 C1.43836751 0.11458693 2.87570966 0.24209116 4.3125 0.375 C5.51326172 0.47941406 5.51326172 0.47941406 6.73828125 0.5859375 C9 1 9 1 12 3 C13.71444889 3.43738696 15.44667784 3.80848688 17.1875 4.125 C18.53908203 4.37636719 18.53908203 4.37636719 19.91796875 4.6328125 C20.60503906 4.75398437 21.29210937 4.87515625 22 5 C22 6.65 22 8.3 22 10 C14.09412824 10.44563369 6.68704038 10.1474735 0.4375 4.8125 C-0.036875 4.214375 -0.51125 3.61625 -1 3 C-0.67 2.01 -0.34 1.02 0 0 Z " fill="#B3AEAA" transform="translate(196,126)"/>
<path d="M0 0 C1.32 0 2.64 0 4 0 C4 8.91 4 17.82 4 27 C3.67 27 3.34 27 3 27 C2.67 28.98 2.34 30.96 2 33 C1.67 33 1.34 33 1 33 C0.97421875 32.11699219 0.9484375 31.23398437 0.921875 30.32421875 C0.53749013 22.19098428 -0.72621889 15.46117556 -4 8 C-3.34 8 -2.68 8 -2 8 C-1.34 5.36 -0.68 2.72 0 0 Z " fill="#AAA5A8" transform="translate(243,23)"/>
<path d="M0 0 C0.5775 0.7425 1.155 1.485 1.75 2.25 C3.73929861 4.68136496 5.63177685 6.93735403 8 9 C8.99 9 9.98 9 11 9 C11 11.64 11 14.28 11 17 C10.34 16.01 9.68 15.02 9 14 C8.01 13.67 7.02 13.34 6 13 C5.67 14.65 5.34 16.3 5 18 C4.34 18 3.68 18 3 18 C3 16.68 3 15.36 3 14 C1.35 13.67 -0.3 13.34 -2 13 C-1.67 12.34 -1.34 11.68 -1 11 C-1.474375 10.05125 -1.94875 9.1025 -2.4375 8.125 C-4 5 -4 5 -4 1 C-2.68 1.33 -1.36 1.66 0 2 C0 1.34 0 0.68 0 0 Z " fill="#DDBA97" transform="translate(85,116)"/>
<path d="M0 0 C4.96916636 0.51405169 9.29026351 1.23384882 14 3 C14 6.96 14 10.92 14 15 C8.1965055 13.8393011 7.34199186 12.64165536 4 8 C3.67 7.01 3.34 6.02 3 5 C2.34 4.67 1.68 4.34 1 4 C0.375 1.9375 0.375 1.9375 0 0 Z " fill="#B2B3B3" transform="translate(233,143)"/>
<path d="M0 0 C1.32 0.33 2.64 0.66 4 1 C4 2.65 4 4.3 4 6 C3.67 6 3.34 6 3 6 C2.16961413 10.99406216 1.89965516 15.77442502 2.0078125 20.83984375 C2.02532671 22.33007134 2.04223519 23.82030615 2.05859375 25.31054688 C2.08949514 27.62545325 2.12504979 29.93998702 2.17138672 32.25463867 C2.39557108 44.10996088 1.9772886 53.74469798 -6.6875 62.8125 C-7.8321875 63.8953125 -7.8321875 63.8953125 -9 65 C-9.66 64.67 -10.32 64.34 -11 64 C-10.54109375 63.3709375 -10.0821875 62.741875 -9.609375 62.09375 C-7.69544488 59.4238979 -5.83938913 56.72166572 -4 54 C-3.55269531 53.36707031 -3.10539063 52.73414063 -2.64453125 52.08203125 C1.97802357 44.52240189 0.69196639 34.32447466 -1 26 C-1.30441602 19.58935665 -1.04372356 13.27444311 -0.22265625 6.9140625 C0.04648706 4.60037442 0.07505459 2.32669243 0 0 Z " fill="#6B544D" transform="translate(182,91)"/>
<path d="M0 0 C-3.86329746 2.373462 -8.09749868 2.88399108 -12.5 3.5625 C-13.7516394 3.76081421 -13.7516394 3.76081421 -15.02856445 3.96313477 C-21.08844458 4.86292658 -27.06875135 5.25166958 -33.1875 5.4375 C-41.04183936 5.68290032 -48.06539572 6.9183587 -55.6171875 9.0625 C-58.74192027 9.92847675 -61.79480753 10.52951303 -65 11 C-64.67 10.01 -64.34 9.02 -64 8 C-59.2699378 6.1378492 -54.03757758 5.74166269 -49 6 C-49 5.34 -49 4.68 -49 4 C-48.11852295 3.9498877 -47.2370459 3.89977539 -46.32885742 3.84814453 C-43.0054189 3.65594253 -39.68245572 3.4576209 -36.35961914 3.25537109 C-34.93137518 3.16964756 -33.50298957 3.08624667 -32.07446289 3.00537109 C-24.37075973 2.56762998 -16.81743655 2.00474483 -9.24609375 0.41015625 C-6.10912115 -0.16268223 -3.17876379 -0.14127839 0 0 Z " fill="#5B4C50" transform="translate(77,196)"/>
<path d="M0 0 C-0.01160156 0.68707031 -0.02320313 1.37414062 -0.03515625 2.08203125 C-0.04417969 2.98308594 -0.05320313 3.88414063 -0.0625 4.8125 C-0.07410156 5.70582031 -0.08570313 6.59914063 -0.09765625 7.51953125 C-0.11009967 10.13413791 -0.11009967 10.13413791 1 13 C-6.26153846 13.49230769 -6.26153846 13.49230769 -10 11 C-10.66 10.34 -11.32 9.68 -12 9 C-11.63450574 6.35016664 -11.23871836 5.22166705 -9.25 3.375 C-6.30740761 1.5767491 -3.50301464 0 0 0 Z " fill="#E2DCD7" transform="translate(129,102)"/>
<path d="M0 0 C11.86498814 0.84274682 22.62030834 3.66541041 34 7 C30.23331402 8.3805087 27.55210827 7.59568159 23.75 6.5625 C22.67234375 6.27503906 21.5946875 5.98757812 20.484375 5.69140625 C19.25460938 5.34916016 19.25460938 5.34916016 18 5 C18 6.65 18 8.3 18 10 C16.02 10 14.04 10 12 10 C12.66 10.33 13.32 10.66 14 11 C13.34 13.31 12.68 15.62 12 18 C12.66 18 13.32 18 14 18 C13.67 18.99 13.34 19.98 13 21 C11 19 11 19 10.875 15.375 C10.91625 14.26125 10.9575 13.1475 11 12 C7.37 10.68 3.74 9.36 0 8 C3.67733219 7.08066695 5.59899538 7.00514419 9.25 7.4375 C10.14203125 7.53933594 11.0340625 7.64117187 11.953125 7.74609375 C12.62859375 7.82988281 13.3040625 7.91367188 14 8 C14 6.35 14 4.7 14 3 C12.98679688 2.92652344 12.98679688 2.92652344 11.953125 2.8515625 C11.06109375 2.77679688 10.1690625 2.70203125 9.25 2.625 C8.36828125 2.55539063 7.4865625 2.48578125 6.578125 2.4140625 C4.00933618 2.00149945 2.24158985 1.28839043 0 0 Z " fill="#968886" transform="translate(204,128)"/>
<path d="M0 0 C0.33 0.99 0.66 1.98 1 3 C0.33333333 4.33333333 -0.33333333 5.66666667 -1 7 C-1.22882421 10.12726415 -1.0012505 11.9962485 0 15 C3.12197478 13.6910428 3.12197478 13.6910428 5 11 C5.66 11 6.32 11 7 11 C7.07347656 12.19496094 7.07347656 12.19496094 7.1484375 13.4140625 C7.70029395 21.38157314 7.70029395 21.38157314 10 29 C3.61728596 26.63603184 0.80893834 20.75163565 -2 15 C-2.66 14.67 -3.32 14.34 -4 14 C-3.91231752 12.4156683 -3.80412671 10.83246433 -3.6875 9.25 C-3.60048828 7.92742187 -3.60048828 7.92742187 -3.51171875 6.578125 C-2.9358819 3.67696226 -1.92403852 2.20774393 0 0 Z " fill="#3F3945" transform="translate(85,97)"/>
<path d="M0 0 C1.8125 1.3125 1.8125 1.3125 3 3 C3 3.99 3 4.98 3 6 C1.98292969 5.94779297 1.98292969 5.94779297 0.9453125 5.89453125 C-7.14957708 5.65908432 -14.6865906 6.03908097 -20.9375 11.625 C-21.618125 12.40875 -22.29875 13.1925 -23 14 C-23.99 14.33 -24.98 14.66 -26 15 C-25.42121757 11.64306189 -24.60202168 10.18355221 -22 8 C-19.67995917 6.72286214 -17.38003049 5.52599835 -15 4.375 C-14.3709375 4.06304687 -13.741875 3.75109375 -13.09375 3.4296875 C-8.63868486 1.23990972 -5.02715507 -0.50271551 0 0 Z " fill="#3A2A1F" transform="translate(140,96)"/>
<path d="M0 0 C1.98 0 3.96 0 6 0 C7.275454 3.91796567 7.16180566 7.86788008 7.16796875 11.94140625 C7.17129715 12.70549301 7.17462555 13.46957977 7.17805481 14.25682068 C7.18310638 15.8680664 7.18546368 17.47932254 7.18530273 19.09057617 C7.18749538 21.55730281 7.2056862 24.02358643 7.22460938 26.49023438 C7.22754242 28.05729014 7.22952781 29.62434802 7.23046875 31.19140625 C7.23765427 31.92895645 7.24483978 32.66650665 7.25224304 33.42640686 C7.2354923 37.1699922 7.13129891 38.80305163 5 42 C5.02320312 41.27039063 5.04640625 40.54078125 5.0703125 39.7890625 C5.2259174 30.7862073 4.4066708 22.05454328 3.26220703 13.13427734 C3.0814522 11.66299363 2.9222383 10.18895759 2.78076172 8.71337891 C2.58709771 6.80100006 2.30129966 4.89839857 2 3 C1.34 2.67 0.68 2.34 0 2 C0 1.34 0 0.68 0 0 Z " fill="#51454C" transform="translate(89,134)"/>
<path d="M0 0 C8.58 0.66 17.16 1.32 26 2 C25.67 2.66 25.34 3.32 25 4 C20.71 4 16.42 4 12 4 C12 12.58 12 21.16 12 30 C11.34 30 10.68 30 10 30 C10 21.42 10 12.84 10 4 C8.35 3.67 6.7 3.34 5 3 C3.3207762 2.36562656 1.64991582 1.70710678 0 1 C0 0.67 0 0.34 0 0 Z " fill="#48312B" transform="translate(138,161)"/>
<path d="M0 0 C4.62 0.99 9.24 1.98 14 3 C12.7 8.2 12.7 8.2 10 10 C5.63293092 10.38991688 3.69486103 10.46324069 0 8 C-0.40843923 5.28796348 -0.13336867 2.7562858 0 0 Z " fill="#291D20" transform="translate(216,156)"/>
<path d="M0 0 C1.28538245 3.6162093 0.69219623 5.99261652 -0.375 9.625 C-0.65085938 10.58664063 -0.92671875 11.54828125 -1.2109375 12.5390625 C-2 15 -2 15 -3 17 C-4.32 16.67 -5.64 16.34 -7 16 C-6.67 18.97 -6.34 21.94 -6 25 C-6.66 25 -7.32 25 -8 25 C-8 22.03 -8 19.06 -8 16 C-13.94 15.01 -13.94 15.01 -20 14 C-19.67 12.35 -19.34 10.7 -19 9 C-13.06 10.485 -13.06 10.485 -7 12 C-7 12.66 -7 13.32 -7 14 C-5.68 14 -4.36 14 -3 14 C-3.061875 12.989375 -3.12375 11.97875 -3.1875 10.9375 C-2.97357173 6.44500628 -1.95386468 3.98914039 0 0 Z " fill="#6A5559" transform="translate(223,140)"/>
<path d="M0 0 C0.66 0 1.32 0 2 0 C2.8125 2.625 2.8125 2.625 3 6 C1.62104124 8.54048835 0.14188458 9.95547381 -2 12 C-2.99 12 -3.98 12 -5 12 C-4.484375 12.37125 -3.96875 12.7425 -3.4375 13.125 C-2 15 -2 15 -2.3125 18.1875 C-2.539375 19.115625 -2.76625 20.04375 -3 21 C-3.66 21 -4.32 21 -5 21 C-5.33 22.98 -5.66 24.96 -6 27 C-6.33 27 -6.66 27 -7 27 C-7.33 24.69 -7.66 22.38 -8 20 C-8.99 20.33 -9.98 20.66 -11 21 C-9.3666137 14.90468039 -7.71895805 11.3650362 -3 7 C-0.92173975 3.70578798 -0.92173975 3.70578798 0 0 Z " fill="#5A4748" transform="translate(180,80)"/>
<path d="M0 0 C-0.51405169 4.96916636 -1.23384882 9.29026351 -3 14 C-4.65 14 -6.3 14 -8 14 C-8.33 16.31 -8.66 18.62 -9 21 C-10 17 -11 13 -12 9 C-10.35 9 -8.7 9 -7 9 C-6.9175 7.88625 -6.835 6.7725 -6.75 5.625 C-6 2 -6 2 -4.0625 0.5625 C-2 0 -2 0 0 0 Z " fill="#9C8E8D" transform="translate(235,97)"/>
<path d="M0 0 C1.37478516 0.01740234 1.37478516 0.01740234 2.77734375 0.03515625 C3.69644531 0.04417969 4.61554688 0.05320312 5.5625 0.0625 C6.27277344 0.07410156 6.98304688 0.08570312 7.71484375 0.09765625 C5.57477123 5.27416675 1.54316846 7.564276 -3.28515625 10.09765625 C-6.31165492 11.06394799 -9.13312115 11.59733322 -12.28515625 12.09765625 C-10.66920793 10.05645837 -8.99951805 8.05692688 -7.28515625 6.09765625 C-6.62515625 6.09765625 -5.96515625 6.09765625 -5.28515625 6.09765625 C-4.97578125 5.29328125 -4.66640625 4.48890625 -4.34765625 3.66015625 C-2.88108155 0.12312314 -2.88108155 0.12312314 0 0 Z " fill="#3F3C4E" transform="translate(137.28515625,85.90234375)"/>
<path d="M0 0 C4.22910869 -0.05817206 8.45811409 -0.09365463 12.6875 -0.125 C14.48477539 -0.15013672 14.48477539 -0.15013672 16.31835938 -0.17578125 C17.47529297 -0.18222656 18.63222656 -0.18867187 19.82421875 -0.1953125 C21.41882935 -0.21102295 21.41882935 -0.21102295 23.0456543 -0.22705078 C26.08126781 0.00624569 28.25623267 0.71794865 31 2 C30.67 2.66 30.34 3.32 30 4 C28.78183594 3.52046875 28.78183594 3.52046875 27.5390625 3.03125 C18.45387806 0.38391149 7.76699456 0.55373674 -0.8125 4.625 C-5.89107128 7.59336161 -9.34450608 10.68901215 -12 16 C-12.66 16 -13.32 16 -14 16 C-13.53280037 11.47053917 -12.10680359 9.68243057 -8.6875 6.75 C-7.90761719 6.06421875 -7.12773438 5.3784375 -6.32421875 4.671875 C-4.11189876 3.08049188 -2.65980934 2.41388338 0 2 C0 1.34 0 0.68 0 0 Z " fill="#2B2F46" transform="translate(104,0)"/>
<path d="M0 0 C3.96 0 7.92 0 12 0 C11.01 2.97 10.02 5.94 9 9 C6.625 9.625 6.625 9.625 4 10 C3.34 9.34 2.68 8.68 2 8 C1.67 9.32 1.34 10.64 1 12 C-0.32 11.34 -1.64 10.68 -3 10 C-3 9.34 -3 8.68 -3 8 C0 6 0 6 2.0625 6.3125 C4 7 4 7 6 8 C5.67 6.35 5.34 4.7 5 3 C4.01 3 3.02 3 2 3 C1.67 3.66 1.34 4.32 1 5 C0.67 3.35 0.34 1.7 0 0 Z " fill="#333346" transform="translate(147,0)"/>
<path d="M0 0 C3.91442413 0.27309936 5.7026101 0.74992213 8.75 3.3125 C12.70028588 8.03089702 13.43081036 10.75324983 13 17 C12 20.4375 12 20.4375 11 23 C10.01 23 9.02 23 8 23 C8.05800781 22.05898437 8.11601562 21.11796875 8.17578125 20.1484375 C8.83284549 12.22136029 8.83284549 12.22136029 5.6875 5.3125 C4.800625 4.549375 3.91375 3.78625 3 3 C2.401875 2.38125 1.80375 1.7625 1.1875 1.125 C0.795625 0.75375 0.40375 0.3825 0 0 Z " fill="#464359" transform="translate(216,172)"/>
<path d="M0 0 C0.66 0 1.32 0 2 0 C2.73662388 6.25545678 2.79434627 10.76410208 -1.1875 15.875 C-2.41854204 17.28573663 -3.69259787 18.65972315 -5 20 C-5.7321875 20.77988281 -6.464375 21.55976563 -7.21875 22.36328125 C-10.70301613 25.66648299 -14.44912987 28.47107586 -18.3125 31.3125 C-19.42334961 32.13717773 -19.42334961 32.13717773 -20.55664062 32.97851562 C-22.36839676 34.32272179 -24.182859 35.66308744 -26 37 C-26.66 36.67 -27.32 36.34 -28 36 C-26.54166667 34.83333333 -25.08333333 33.66666667 -23.625 32.5 C-22.71621094 31.77039063 -21.80742188 31.04078125 -20.87109375 30.2890625 C-19.01929421 28.81266178 -17.157924 27.34814836 -15.28515625 25.8984375 C-5.24213638 18.15430022 -5.24213638 18.15430022 -0.6640625 6.6875 C-0.40649378 4.45987861 -0.18500782 2.2346997 0 0 Z " fill="#2A2E46" transform="translate(62,133)"/>
<path d="M0 0 C5.10594551 6.4379313 4.38337713 13.06498508 4 21 C3.5423626 23.52297488 2.9147217 25.59885554 2 28 C0.35 28 -1.3 28 -3 28 C-2.7834375 27.40316406 -2.566875 26.80632812 -2.34375 26.19140625 C0.47199437 17.41827679 0.28797579 9.09790175 0 0 Z " fill="#D9AE87" transform="translate(173,48)"/>
<path d="M0 0 C0.66 0.33 1.32 0.66 2 1 C2.61186342 10.58586023 -0.52227888 17.33935063 -6.6796875 24.6328125 C-11.51932533 29.57022079 -17.324456 33.95581428 -24 36 C-26.3125 35.625 -26.3125 35.625 -28 35 C-27.39414062 34.81566406 -26.78828125 34.63132813 -26.1640625 34.44140625 C-16.1040126 30.95908128 -8.47836845 24.07354774 -3 15 C-0.88818446 10.14282425 -0.4414401 5.22758018 0 0 Z " fill="#272B43" transform="translate(45,100)"/>
<path d="M0 0 C0.66 0.66 1.32 1.32 2 2 C0.02 2.66 -1.96 3.32 -4 4 C-4.33 6.31 -4.66 8.62 -5 11 C-6.65 11 -8.3 11 -10 11 C-10.33 11.66 -10.66 12.32 -11 13 C-11.15692821 4.83973289 -11.15692821 4.83973289 -10 2 C-6.32653229 -0.44897847 -4.33643601 -0.31537716 0 0 Z " fill="#B3A7A7" transform="translate(233,95)"/>
<path d="M0 0 C-0.57443848 0.30703857 -1.14887695 0.61407715 -1.74072266 0.93041992 C-4.37267471 2.34238292 -6.99881937 3.7648333 -9.625 5.1875 C-10.52863281 5.67025391 -11.43226563 6.15300781 -12.36328125 6.65039062 C-17.38243305 9.37978339 -21.76823686 12.15485974 -26 16 C-26 15.01 -26 14.02 -26 13 C-25.34 13 -24.68 13 -24 13 C-23.97292969 12.26265625 -23.94585937 11.5253125 -23.91796875 10.765625 C-22.59731108 6.78679253 -19.82864699 5.6138088 -16.3125 3.75 C-15.69955078 3.399375 -15.08660156 3.04875 -14.45507812 2.6875 C-9.57439825 -0.00386112 -5.42633041 -1.8087768 0 0 Z " fill="#4C4554" transform="translate(230,81)"/>
<path d="M0 0 C2.32864334 2.32864334 2.31845037 2.83322071 2.375 6 C2.20592969 13.48739946 -0.78117161 20.61808323 -6 26 C-8.0625 27.875 -8.0625 27.875 -10 29 C-10.99 28.67 -11.98 28.34 -13 28 C-12.57847656 27.37351562 -12.15695313 26.74703125 -11.72265625 26.1015625 C-11.17480469 25.28429687 -10.62695312 24.46703125 -10.0625 23.625 C-9.51722656 22.81289062 -8.97195312 22.00078125 -8.41015625 21.1640625 C-6.98906121 19.07280816 -6.98906121 19.07280816 -6 17 C-5.34 17 -4.68 17 -4 17 C-3.67 16.34 -3.34 15.68 -3 15 C-2.34 15.33 -1.68 15.66 -1 16 C-0.67 10.72 -0.34 5.44 0 0 Z " fill="#534348" transform="translate(161,62)"/>
<path d="M0 0 C-0.61875 0.5775 -1.2375 1.155 -1.875 1.75 C-4.08620922 3.78664734 -4.08620922 3.78664734 -4.75 6.125 C-6.34815875 8.52223813 -7.37854577 8.56579561 -10.125 9.25 C-11.40375 9.4975 -12.6825 9.745 -14 10 C-14 9.01 -14 8.02 -14 7 C-14.66 7 -15.32 7 -16 7 C-16.33 7.66 -16.66 8.32 -17 9 C-17 8.01 -17 7.02 -17 6 C-15.68 6 -14.36 6 -13 6 C-12.5875 5.21625 -12.175 4.4325 -11.75 3.625 C-9.78361948 0.67542922 -9.21818312 0.47620427 -5.9375 -0.375 C-2 -1 -2 -1 0 0 Z " fill="#4B5C66" transform="translate(22,50)"/>
<path d="M0 0 C3.5 0.3125 3.5 0.3125 7 1 C7.495 1.99 7.495 1.99 8 3 C7.29617187 3.06316406 6.59234375 3.12632813 5.8671875 3.19140625 C-2.13838057 4.18426391 -8.17899372 6.75141244 -15.1640625 10.5390625 C-18 12 -18 12 -20 12 C-20 12.66 -20 13.32 -20 14 C-23.3 14 -26.6 14 -30 14 C-27.28721742 11.28721742 -24.10485753 10.44627376 -20.5625 9.1875 C-9.50796793 5.85284359 -9.50796793 5.85284359 0 0 Z " fill="#A38265" transform="translate(136,93)"/>
<path d="M0 0 C0 0.66 0 1.32 0 2 C-8.91 4.97 -8.91 4.97 -18 8 C-18 6.02 -18 4.04 -18 2 C-15.5089215 0.75446075 -13.46200042 0.6740271 -10.6875 0.4375 C-9.27017578 0.31181641 -9.27017578 0.31181641 -7.82421875 0.18359375 C-5.20564723 0.01336849 -2.62304081 -0.03344496 0 0 Z " fill="#434662" transform="translate(18,137)"/>
<path d="M0 0 C0.66 0.33 1.32 0.66 2 1 C2.31241455 3.71446979 2.51336592 6.33909361 2.625 9.0625 C2.66367188 9.82111328 2.70234375 10.57972656 2.7421875 11.36132812 C2.83673562 13.24047195 2.91946756 15.12020336 3 17 C3.66 17 4.32 17 5 17 C4.8125 19.3125 4.8125 19.3125 4 22 C3.2575 22.433125 2.515 22.86625 1.75 23.3125 C-1.691415 25.42427739 -2.93958693 27.79483538 -4.88671875 31.2578125 C-6 33 -6 33 -8 34 C-7.02481062 32.03220715 -6.04029802 30.07492913 -5 28.140625 C-0.01253438 18.71119781 0.26677741 10.55252864 0 0 Z " fill="#343246" transform="translate(89,158)"/>
<path d="M0 0 C1.60407328 -0.02708567 3.2082785 -0.04643483 4.8125 -0.0625 C5.70582031 -0.07410156 6.59914062 -0.08570313 7.51953125 -0.09765625 C10 0 10 0 13 1 C14.51949903 1.18971921 16.04408648 1.34032541 17.5703125 1.46484375 C18.4675 1.54283203 19.3646875 1.62082031 20.2890625 1.70117188 C22.15608937 1.85675745 24.02327485 2.01045311 25.890625 2.16210938 C31.75020388 2.67544855 37.28432477 3.60322456 43 5 C43 5.33 43 5.66 43 6 C28.3994192 5.65564668 14.35174809 3.65145275 0 1 C0 0.67 0 0.34 0 0 Z " fill="#6C5554" transform="translate(170,197)"/>
<path d="M0 0 C1.21458058 3.56676128 0.80080853 6.26684137 0.125 9.9375 C-0.05804688 10.95714844 -0.24109375 11.97679688 -0.4296875 13.02734375 C-0.94008411 15.68769867 -1.46216792 18.34506525 -2 21 C-2.99 21.33 -3.98 21.66 -5 22 C-6.04940487 18.85178538 -5.98606526 18.0650509 -5.22265625 14.98828125 C-5.03896484 14.23095703 -4.85527344 13.47363281 -4.66601562 12.69335938 C-4.46685547 11.90767578 -4.26769531 11.12199219 -4.0625 10.3125 C-3.86720703 9.51521484 -3.67191406 8.71792969 -3.47070312 7.89648438 C-2.98771618 5.92919611 -2.4948037 3.96434946 -2 2 C-1.34 2 -0.68 2 0 2 C0 1.34 0 0.68 0 0 Z " fill="#A69694" transform="translate(225,110)"/>
<path d="M0 0 C1.08667969 0.19464844 2.17335937 0.38929688 3.29296875 0.58984375 C4.54013672 0.82380859 4.54013672 0.82380859 5.8125 1.0625 C5.8125 1.3925 5.8125 1.7225 5.8125 2.0625 C-1.61607143 2.20535714 -1.61607143 2.20535714 -5.1875 1.0625 C-6.77005197 5.38814205 -7.63894652 9.491221 -8.1875 14.0625 C-9.5075 14.0625 -10.8275 14.0625 -12.1875 14.0625 C-11.87622484 12.47892541 -11.56342711 10.89565007 -11.25 9.3125 C-10.98896484 7.98992187 -10.98896484 7.98992187 -10.72265625 6.640625 C-10.54605469 5.78984375 -10.36945313 4.9390625 -10.1875 4.0625 C-10.06246094 3.31484375 -9.93742188 2.5671875 -9.80859375 1.796875 C-9.50115234 0.93835938 -9.50115234 0.93835938 -9.1875 0.0625 C-5.61369658 -1.12876781 -3.67866698 -0.6724445 0 0 Z " fill="#3C3834" transform="translate(228.1875,139.9375)"/>
<path d="M0 0 C0.33 0 0.66 0 1 0 C1.45760607 5.7200759 0.63848132 8.55296727 -3 13 C-6.50168029 16.6267403 -10.17276917 16.59773076 -15 17 C-14.34 15.02 -13.68 13.04 -13 11 C-12.34 11 -11.68 11 -11 11 C-10.67 11.66 -10.34 12.32 -10 13 C-8.12119128 12.95231597 -8.12119128 12.95231597 -6 12 C-3.01719354 8.22762713 -1.31667565 4.60836476 0 0 Z " fill="#2C2F47" transform="translate(102,16)"/>
<path d="M0 0 C0.99 0 1.98 0 3 0 C4.4783226 2.95664519 4.06032783 5.74229737 4 9 C1.125 9.625 1.125 9.625 -2 10 C-2.66 9.34 -3.32 8.68 -4 8 C-3.66630785 4.66307847 -2.25902102 2.43279187 0 0 Z " fill="#222525" transform="translate(136,102)"/>
<path d="M0 0 C4.42760874 2.21380437 6.30652462 8.5833744 8 13 C8.4417991 16.41510701 8.40793241 19.58545466 8 23 C7.67 23 7.34 23 7 23 C6.34 19.04 5.68 15.08 5 11 C4.34 14.63 3.68 18.26 3 22 C2.67 22 2.34 22 2 22 C1.90912109 20.24623047 1.90912109 20.24623047 1.81640625 18.45703125 C1.73195966 16.90884386 1.64731375 15.36066732 1.5625 13.8125 C1.52318359 13.04357422 1.48386719 12.27464844 1.44335938 11.48242188 C1.22492966 7.56748925 0.91307892 3.82879312 0 0 Z " fill="#2A2C41" transform="translate(178,45)"/>
<path d="M0 0 C0.66 0.33 1.32 0.66 2 1 C2 7.6 2 14.2 2 21 C1.34 21 0.68 21 0 21 C0.185625 22.27875 0.37125 23.5575 0.5625 24.875 C1.125 28.75 1.125 28.75 0 31 C-1.32 31 -2.64 31 -4 31 C-4 31.66 -4 32.32 -4 33 C-4.66 32.67 -5.32 32.34 -6 32 C-5.73445312 31.50371094 -5.46890625 31.00742188 -5.1953125 30.49609375 C-4.84210938 29.81675781 -4.48890625 29.13742188 -4.125 28.4375 C-3.77695313 27.77621094 -3.42890625 27.11492187 -3.0703125 26.43359375 C-0.34000088 20.22562245 0.27343059 14.72474974 0.125 8.0625 C0.11597656 7.28326172 0.10695312 6.50402344 0.09765625 5.70117188 C0.07433691 3.80064553 0.03847586 1.90027992 0 0 Z " fill="#62483F" transform="translate(176,52)"/>
<path d="M0 0 C5.77807024 -0.2358396 10.51324804 0.13216954 16 2 C16 2.66 16 3.32 16 4 C14.64455078 3.76603516 14.64455078 3.76603516 13.26171875 3.52734375 C12.08222656 3.33269531 10.90273437 3.13804687 9.6875 2.9375 C8.51574219 2.74027344 7.34398437 2.54304687 6.13671875 2.33984375 C2.97488124 1.77694302 2.97488124 1.77694302 0 3 C-0.0270043 4.45823212 -0.04639787 5.91660675 -0.0625 7.375 C-0.07410156 8.18710938 -0.08570313 8.99921875 -0.09765625 9.8359375 C-0.14466334 12.04937142 -0.14466334 12.04937142 1 14 C-0.32 13.67 -1.64 13.34 -3 13 C-3.31563182 7.73946963 -2.66590937 4.55426184 0 0 Z " fill="#7F7C77" transform="translate(231,142)"/>
<path d="M0 0 C0.99 0.33 1.98 0.66 3 1 C2.33333333 6.33333333 1.66666667 11.66666667 1 17 C0.34 16.34 -0.32 15.68 -1 15 C-4.08347826 14.83318891 -4.08347826 14.83318891 -7 15 C-6.34 14.67 -5.68 14.34 -5 14 C-4.67 13.34 -4.34 12.68 -4 12 C-3.67 12 -3.34 12 -3 12 C-3 10.35 -3 8.7 -3 7 C-2.34 7.66 -1.68 8.32 -1 9 C-0.67 6.03 -0.34 3.06 0 0 Z " fill="#C1AB91" transform="translate(180,96)"/>
<path d="M0 0 C2.31 0 4.62 0 7 0 C6.71125 0.515625 6.4225 1.03125 6.125 1.5625 C4.71219973 4.62356725 3.8751483 7.74944918 3 11 C1.68 10.67 0.36 10.34 -1 10 C-1.125 2.25 -1.125 2.25 0 0 Z " fill="#465755" transform="translate(129,102)"/>
<path d="M0 0 C1.35432675 1.31200404 2.68733482 2.64631404 4 4 C4 4.33 4 4.66 4 5 C2.02 5 0.04 5 -2 5 C-1.34 5.33 -0.68 5.66 0 6 C-0.66 8.31 -1.32 10.62 -2 13 C-1.34 13 -0.68 13 0 13 C-0.33 13.99 -0.66 14.98 -1 16 C-3 14 -3 14 -3.125 10.375 C-3.08375 9.26125 -3.0425 8.1475 -3 7 C-6.63 5.68 -10.26 4.36 -14 3 C-10.32266781 2.08066695 -8.40100462 2.00514419 -4.75 2.4375 C-3.85796875 2.53933594 -2.9659375 2.64117187 -2.046875 2.74609375 C-1.37140625 2.82988281 -0.6959375 2.91367188 0 3 C0 2.01 0 1.02 0 0 Z " fill="#75706A" transform="translate(218,133)"/>
<path d="M0 0 C0.6875 1.6875 0.6875 1.6875 1 4 C-0.3125 6.5625 -0.3125 6.5625 -2 9 C-2.99 10.485 -2.99 10.485 -4 12 C-0.7 12.99 2.6 13.98 6 15 C1.47669436 16.13082641 -1.80455366 15.48536209 -6.25 14.5625 C-6.99507812 14.41490234 -7.74015625 14.26730469 -8.5078125 14.11523438 C-10.34007665 13.7511306 -12.17026053 13.37658591 -14 13 C-14 12.67 -14 12.34 -14 12 C-12.948125 11.773125 -11.89625 11.54625 -10.8125 11.3125 C-6.80198218 10.15967909 -4.65457143 8.26133061 -2 5 C-0.680982 2.33466965 -0.680982 2.33466965 0 0 Z " fill="#AC6C60" transform="translate(229,191)"/>
<path d="M0 0 C0.33 0 0.66 0 1 0 C1 4.29 1 8.58 1 13 C1.66 13 2.32 13 3 13 C1.5682479 18.01113235 -0.98445693 19.94469549 -5 23 C-4.80664062 22.42894531 -4.61328125 21.85789062 -4.4140625 21.26953125 C-2.16455191 14.2648671 -0.97038478 7.283594 0 0 Z " fill="#574145" transform="translate(165,65)"/>
<path d="M0 0 C0.66 0.33 1.32 0.66 2 1 C3.17169312 4.98375661 3.08089427 8.87439224 3 13 C2.40703125 13.10183594 1.8140625 13.20367187 1.203125 13.30859375 C-1.36184111 14.11355652 -2.42743483 15.11566902 -4.25 17.0625 C-4.77078125 17.61035156 -5.2915625 18.15820312 -5.828125 18.72265625 C-6.40820312 19.35494141 -6.40820312 19.35494141 -7 20 C-7.66 19.67 -8.32 19.34 -9 19 C-8.15115234 18.19949219 -8.15115234 18.19949219 -7.28515625 17.3828125 C-2.3333128 12.35264464 -0.1110784 8.9986569 0.0625 1.87109375 C0.041875 1.25363281 0.02125 0.63617188 0 0 Z " fill="#383544" transform="translate(201,140)"/>
<path d="M0 0 C4.05111997 3.71068972 5.76099122 8.20317799 6.22265625 13.60546875 C6.26384355 17.58886946 6.09368309 21.15446914 5 25 C4.01 24.67 3.02 24.34 2 24 C2.15984375 23.42378906 2.3196875 22.84757812 2.484375 22.25390625 C4.25814346 14.50038807 2.33291525 7.42922416 0 0 Z " fill="#C4A07C" transform="translate(159,53)"/>
<path d="M0 0 C0.66 0.99 1.32 1.98 2 3 C-1.4524818 8.61946506 -4.67267854 13.0679294 -10 17 C-9.36651054 13.28584259 -7.71342582 10.80869701 -5.5625 7.75 C-4.94503906 6.85796875 -4.32757813 5.9659375 -3.69140625 5.046875 C-3.13324219 4.37140625 -2.57507813 3.6959375 -2 3 C-1.34 3 -0.68 3 0 3 C0 2.01 0 1.02 0 0 Z " fill="#5A4C4D" transform="translate(91,178)"/>
<path d="M0 0 C1.32 0.33 2.64 0.66 4 1 C3.34 1 2.68 1 2 1 C2.02320313 1.60328125 2.04640625 2.2065625 2.0703125 2.828125 C2.08835938 3.62734375 2.10640625 4.4265625 2.125 5.25 C2.14820313 6.03890625 2.17140625 6.8278125 2.1953125 7.640625 C1.9828378 10.20731941 1.28654105 11.7916067 0 14 C-1.32 13.67 -2.64 13.34 -4 13 C-3.67 10.69 -3.34 8.38 -3 6 C-2.34 6 -1.68 6 -1 6 C-0.67 4.02 -0.34 2.04 0 0 Z " fill="#3C3D33" transform="translate(178,95)"/>
<path d="M0 0 C3.60411654 1.44633744 5.11402568 3.19136668 7.1875 6.4375 C7.95126953 7.61119141 7.95126953 7.61119141 8.73046875 8.80859375 C11.16258982 13.00680889 11.10627081 16.41648197 11.0625 21.1875 C11.05347656 22.45980469 11.04445312 23.73210937 11.03515625 25.04296875 C11.02355469 26.01878906 11.01195312 26.99460937 11 28 C10.67 28 10.34 28 10 28 C9.85304687 26.62328125 9.85304687 26.62328125 9.703125 25.21875 C8.54440857 15.70928412 7.24663448 8.72901773 0 2 C0 1.34 0 0.68 0 0 Z " fill="#2C2D46" transform="translate(196,47)"/>
<path d="M0 0 C1.32 0 2.64 0 4 0 C4.66 0.99 5.32 1.98 6 3 C6.99 3 7.98 3 9 3 C9 3.66 9 4.32 9 5 C9.66 5.33 10.32 5.66 11 6 C10.67 6.66 10.34 7.32 10 8 C8.6078125 7.7215625 8.6078125 7.7215625 7.1875 7.4375 C3.98656229 6.75876119 3.98656229 6.75876119 1 8 C0.67 5.36 0.34 2.72 0 0 Z " fill="#4E4355" transform="translate(143,0)"/>
<path d="M0 0 C0.33 0 0.66 0 1 0 C1.19335938 0.67546875 1.38671875 1.3509375 1.5859375 2.046875 C1.84632812 2.93890625 2.10671875 3.8309375 2.375 4.75 C2.63023438 5.63171875 2.88546875 6.5134375 3.1484375 7.421875 C4.7792264 12.47522863 4.7792264 12.47522863 8.875 15.625 C9.90625 16.07875 10.9375 16.5325 12 17 C13.33333333 17.66666667 14.66666667 18.33333333 16 19 C11.74400319 19.42559968 8.98690246 19.41830608 5.625 16.75 C2.23709369 13.20076482 2.23709369 13.20076482 2 10 C1.34 10 0.68 10 0 10 C-1.231394 6.30581799 -0.64432764 3.7943739 0 0 Z " fill="#4D4144" transform="translate(72,117)"/>
<path d="M0 0 C1.29550781 0.27457031 1.29550781 0.27457031 2.6171875 0.5546875 C4.79475932 1.04989854 6.96159124 1.57156985 9.125 2.125 C9.125 3.445 9.125 4.765 9.125 6.125 C6.22547692 5.4314922 3.3964477 4.61296854 0.5625 3.6875 C-0.20191406 3.44128906 -0.96632812 3.19507813 -1.75390625 2.94140625 C-3.875 2.125 -3.875 2.125 -6.875 0.125 C-4.20497107 -1.21001447 -2.8903982 -0.62611 0 0 Z " fill="#6B646A" transform="translate(237.875,158.875)"/>
<path d="M0 0 C0.66 0 1.32 0 2 0 C1.41476853 3.95031241 -0.15609287 6.22719055 -3 9 C-5.93311867 10.27438949 -8.90974036 11.18781638 -12 12 C-10.75 9.0625 -10.75 9.0625 -9 6 C-6.8125 5.125 -6.8125 5.125 -5 5 C-5.33 5.99 -5.66 6.98 -6 8 C-2.21965377 4.52263974 -2.21965377 4.52263974 0 0 Z " fill="#2B2F3F" transform="translate(27,47)"/>
<path d="M0 0 C0.99 0 1.98 0 3 0 C3 3.3 3 6.6 3 10 C1.35 10 -0.3 10 -2 10 C-1.125 2.25 -1.125 2.25 0 0 Z " fill="#C7C4C3" transform="translate(244,25)"/>
<path d="M0 0 C4.42741644 1.35282169 6.36309221 3.23298888 9 7 C10.29376578 9.58753156 10.16832397 11.54958985 10.1875 14.4375 C10.20167969 15.40558594 10.21585938 16.37367188 10.23046875 17.37109375 C10 20 10 20 8 23 C8.03480469 22.19175781 8.06960937 21.38351563 8.10546875 20.55078125 C8.13253906 19.48214844 8.15960938 18.41351563 8.1875 17.3125 C8.22230469 16.25675781 8.25710937 15.20101562 8.29296875 14.11328125 C7.96495592 10.62759828 6.9186507 8.87545813 5 6 C5 5.34 5 4.68 5 4 C3.02 3.34 1.04 2.68 -1 2 C-0.67 1.34 -0.34 0.68 0 0 Z " fill="#5F3B4B" transform="translate(220,171)"/>
<path d="M0 0 C1.64521904 4.59155902 -0.00359847 7.84955073 -1.67578125 12.2265625 C-3.56207004 16.17719683 -5.94891934 18.8795766 -9 22 C-9.33 21.01 -9.66 20.02 -10 19 C-9.38125 18.79375 -8.7625 18.5875 -8.125 18.375 C-5.10222877 16.4190892 -4.92166828 14.42333931 -4 11 C-2.78376948 7.27529404 -1.49204983 3.62354959 0 0 Z " fill="#534655" transform="translate(243,56)"/>
<path d="M0 0 C0.5259375 0.7734375 0.5259375 0.7734375 1.0625 1.5625 C3.0813312 3.40545306 3.0813312 3.40545306 6.5625 2.5625 C7.696875 2.376875 8.83125 2.19125 10 2 C10.66 2.66 11.32 3.32 12 4 C11.625 6.125 11.625 6.125 11 8 C10.67 7.01 10.34 6.02 10 5 C9.01 4.67 8.02 4.34 7 4 C6.67 5.65 6.34 7.3 6 9 C5.34 9 4.68 9 4 9 C4 7.68 4 6.36 4 5 C2.35 4.67 0.7 4.34 -1 4 C-0.67 2.68 -0.34 1.36 0 0 Z " fill="#B48269" transform="translate(84,125)"/>
<path d="M0 0 C0.33 0 0.66 0 1 0 C1.13277344 0.90363281 1.26554687 1.80726562 1.40234375 2.73828125 C1.57894531 3.91777344 1.75554687 5.09726563 1.9375 6.3125 C2.11152344 7.48425781 2.28554687 8.65601562 2.46484375 9.86328125 C2.92093031 13.01641403 2.92093031 13.01641403 4 16 C-0.2742558 14.4169423 -2.26531794 11.49431596 -5 8 C-3.66666667 8 -2.33333333 8 -1 8 C-0.67 5.36 -0.34 2.72 0 0 Z " fill="#5F483F" transform="translate(91,110)"/>
<path d="M0 0 C0.33 3.3 0.66 6.6 1 10 C-0.65 10 -2.3 10 -4 10 C-4.36814024 3.49618902 -4.36814024 3.49618902 -2.5625 1.0625 C-1 0 -1 0 0 0 Z " fill="#E9DBCD" transform="translate(173,99)"/>
<path d="M0 0 C0.66 0.33 1.32 0.66 2 1 C1.57847656 1.38671875 1.15695313 1.7734375 0.72265625 2.171875 C-0.09912109 2.95304687 -0.09912109 2.95304687 -0.9375 3.75 C-1.48277344 4.26046875 -2.02804688 4.7709375 -2.58984375 5.296875 C-4.16044692 7.19378076 -4.58731286 8.59701161 -5 11 C-5.99 11 -6.98 11 -8 11 C-7.67 13.64 -7.34 16.28 -7 19 C-9 17 -9 17 -9.5625 13.875 C-8.76879807 8.40727561 -5.83882914 5.7780332 -2 2 C-1.34 1.34 -0.68 0.68 0 0 Z " fill="#3B2F3F" transform="translate(197,95)"/>
<path d="M0 0 C0.33 0.66 0.66 1.32 1 2 C-0.21484375 4.3828125 -0.21484375 4.3828125 -1.9375 7.125 C-2.50339844 8.03507812 -3.06929687 8.94515625 -3.65234375 9.8828125 C-4.09707031 10.58148438 -4.54179687 11.28015625 -5 12 C-5.99 11.67 -6.98 11.34 -8 11 C-8.99 11 -9.98 11 -11 11 C-10.45730469 10.54109375 -9.91460937 10.0821875 -9.35546875 9.609375 C-8.64003906 8.99578125 -7.92460937 8.3821875 -7.1875 7.75 C-6.47980469 7.14671875 -5.77210938 6.5434375 -5.04296875 5.921875 C-3.08110329 4.07629602 -1.54330375 2.20054668 0 0 Z " fill="#DDB386" transform="translate(155,77)"/>
<path d="M0 0 C0.33 0.99 0.66 1.98 1 3 C1.66 3.33 2.32 3.66 3 4 C0.66666667 6.33333333 -1.66666667 8.66666667 -4 11 C-4.99 10.67 -5.98 10.34 -7 10 C-3.535 5.05 -3.535 5.05 0 0 Z " fill="#6C4B3F" transform="translate(155,80)"/>
<path d="M0 0 C0.99 0.33 1.98 0.66 3 1 C2.9175 2.0725 2.835 3.145 2.75 4.25 C2.63762783 8.04009265 2.63762783 8.04009265 5 10.4375 C5.66 10.953125 6.32 11.46875 7 12 C4.69 12 2.38 12 0 12 C-0.66 10.35 -1.32 8.7 -2 7 C-1.34 6.67 -0.68 6.34 0 6 C0 4.02 0 2.04 0 0 Z " fill="#74535B" transform="translate(189,106)"/>
<path d="M0 0 C3.63 0 7.26 0 11 0 C10.34 1.32 9.68 2.64 9 4 C5.375 4.75 5.375 4.75 2 5 C1.34 3.35 0.68 1.7 0 0 Z " fill="#D7A878" transform="translate(141,97)"/>
<path d="M0 0 C-0.66 1.98 -1.32 3.96 -2 6 C-3.65 6.33 -5.3 6.66 -7 7 C-7 5.35 -7 3.7 -7 2 C-4.35261084 0.5393715 -3.10551666 0 0 0 Z " fill="#BBBEBE" transform="translate(18,52)"/>
<path d="M0 0 C4.62 0 9.24 0 14 0 C14 0.99 14 1.98 14 3 C9.38 3 4.76 3 0 3 C0 2.01 0 1.02 0 0 Z " fill="#7B7376" transform="translate(233,0)"/>
<path d="M0 0 C0.33 0.66 0.66 1.32 1 2 C-1.57784846 4.64752004 -3.91648098 6.94432065 -7 9 C-9.1875 8.625 -9.1875 8.625 -11 8 C-10.34 8 -9.68 8 -9 8 C-9 7.34 -9 6.68 -9 6 C-7.68 5.67 -6.36 5.34 -5 5 C-5 4.34 -5 3.68 -5 3 C-2.5 1.375 -2.5 1.375 0 0 Z " fill="#523A49" transform="translate(227,194)"/>
<path d="M0 0 C7.92 0.66 15.84 1.32 24 2 C24 2.33 24 2.66 24 3 C21.31297439 3.25086966 18.62768528 3.47611241 15.9375 3.6875 C14.80924805 3.79674805 14.80924805 3.79674805 13.65820312 3.90820312 C8.22773197 4.30784819 4.84330886 3.50205464 0 1 C0 0.67 0 0.34 0 0 Z " fill="#846043" transform="translate(138,161)"/>
<path d="M0 0 C-0.33 0.99 -0.66 1.98 -1 3 C-1.66 3 -2.32 3 -3 3 C-3 3.66 -3 4.32 -3 5 C-6.3 5 -9.6 5 -13 5 C-10.94876752 2.94876752 -9.72994937 2.35852882 -7.0625 1.375 C-6.37285156 1.11460938 -5.68320313 0.85421875 -4.97265625 0.5859375 C-3 0 -3 0 0 0 Z " fill="#C1946D" transform="translate(119,102)"/>
<path d="M0 0 C4.29 0 8.58 0 13 0 C13 0.99 13 1.98 13 3 C10.36 3.33 7.72 3.66 5 4 C5 3.34 5 2.68 5 2 C3.35 1.67 1.7 1.34 0 1 C0 0.67 0 0.34 0 0 Z " fill="#41394A" transform="translate(130,0)"/>
<path d="M0 0 C1.31534494 3.65857532 0.65468309 6.08026481 -0.4375 9.75 C-0.86869141 11.22726563 -0.86869141 11.22726563 -1.30859375 12.734375 C-1.53675781 13.48203125 -1.76492187 14.2296875 -2 15 C-3.44977894 12.65887549 -4.04314411 11.4203071 -3.7578125 8.640625 C-3.54898438 7.85171875 -3.34015625 7.0628125 -3.125 6.25 C-2.92132813 5.45078125 -2.71765625 4.6515625 -2.5078125 3.828125 C-2.34023437 3.22484375 -2.17265625 2.6215625 -2 2 C-1.34 2 -0.68 2 0 2 C0 1.34 0 0.68 0 0 Z " fill="#BBAAA9" transform="translate(225,110)"/>
<path d="M0 0 C-0.33 1.98 -0.66 3.96 -1 6 C-1.66 6 -2.32 6 -3 6 C-3.33 7.98 -3.66 9.96 -4 12 C-4.33 12 -4.66 12 -5 12 C-5.58053939 8.99002946 -6.04900714 6.07111406 -6 3 C-3.99177618 0.71477979 -3.04235328 0 0 0 Z " fill="#939085" transform="translate(178,95)"/>
<path d="M0 0 C0.33 0 0.66 0 1 0 C0.125 7.75 0.125 7.75 -1 10 C0.32 10 1.64 10 3 10 C3 10.66 3 11.32 3 12 C1.948125 11.979375 0.89625 11.95875 -0.1875 11.9375 C-3.32704904 11.98896802 -5.96883396 12.26517187 -9 13 C-5.375 10 -5.375 10 -2 10 C-1.34 6.7 -0.68 3.4 0 0 Z " fill="#332C3A" transform="translate(184,69)"/>
<path d="M0 0 C0.33 0.66 0.66 1.32 1 2 C-0.47169811 5.73584906 -0.47169811 5.73584906 -3 7 C-5.2072923 7.07092842 -7.41667452 7.08415025 -9.625 7.0625 C-10.81351562 7.05347656 -12.00203125 7.04445313 -13.2265625 7.03515625 C-14.14179687 7.02355469 -15.05703125 7.01195312 -16 7 C-16 6.67 -16 6.34 -16 6 C-10.06 5.505 -10.06 5.505 -4 5 C-4 4.34 -4 3.68 -4 3 C-2 1.375 -2 1.375 0 0 Z " fill="#4C394C" transform="translate(88,27)"/>
<path d="M0 0 C0.66 0 1.32 0 2 0 C2.05437607 1.58294782 2.09296271 3.16644256 2.125 4.75 C2.14820313 5.63171875 2.17140625 6.5134375 2.1953125 7.421875 C1.99139502 10.1135858 1.36551721 11.69904974 0 14 C-0.66 14 -1.32 14 -2 14 C-1.34 9.38 -0.68 4.76 0 0 Z " fill="#D3BFA9" transform="translate(142,102)"/>
<path d="M0 0 C0.66 0.33 1.32 0.66 2 1 C-1.71750779 5.20240011 -6.31660979 7.99782679 -11 11 C-9.63310446 7.84930578 -8.14342115 5.99108226 -5.5 3.8125 C-4.8915625 3.30332031 -4.283125 2.79414062 -3.65625 2.26953125 C-2 1 -2 1 0 0 Z " fill="#343950" transform="translate(57,57)"/>
<path d="M0 0 C0.33 1.32 0.66 2.64 1 4 C-2.63 4 -6.26 4 -10 4 C-9.67 3.01 -9.34 2.02 -9 1 C-6.03421164 -0.16513114 -3.15436364 -0.08762121 0 0 Z " fill="#1F2022" transform="translate(140,98)"/>
<path d="M0 0 C0.99 0 1.98 0 3 0 C3.33 1.32 3.66 2.64 4 4 C3.360625 4.268125 2.72125 4.53625 2.0625 4.8125 C-0.33131686 5.88667752 -0.33131686 5.88667752 -1 9 C-1.66 9 -2.32 9 -3 9 C-2.01 6.03 -1.02 3.06 0 0 Z " fill="#543A26" transform="translate(172,92)"/>
<path d="M0 0 C1.07310858 3.27185553 0.89263102 5.42947592 0.0625 8.75 C-0.22947266 9.94882813 -0.22947266 9.94882813 -0.52734375 11.171875 C-0.68332031 11.77515625 -0.83929688 12.3784375 -1 13 C-1.66 13 -2.32 13 -3 13 C-2.88557539 11.39504433 -2.75805306 9.79101881 -2.625 8.1875 C-2.55539063 7.29417969 -2.48578125 6.40085938 -2.4140625 5.48046875 C-2 3 -2 3 0 0 Z " fill="#908B84" transform="translate(223,140)"/>
<path d="M0 0 C1.16945792 0.80847729 2.33550461 1.62189112 3.5 2.4375 C4.47453125 3.11619141 4.47453125 3.11619141 5.46875 3.80859375 C6.22671875 4.39833984 6.22671875 4.39833984 7 5 C7 5.33 7 5.66 7 6 C1.375 6.25 1.375 6.25 -2 4 C-1 1 -1 1 0 0 Z " fill="#31504B" transform="translate(132,110)"/>
<path d="M0 0 C0.33 0 0.66 0 1 0 C1.1953125 6.0546875 1.1953125 6.0546875 1 8 C0.34 8.66 -0.32 9.32 -1 10 C-1.66 10 -2.32 10 -3 10 C-3.66 10.66 -4.32 11.32 -5 12 C-5 10.68 -5 9.36 -5 8 C-4.34 8 -3.68 8 -3 8 C-3 7.01 -3 6.02 -3 5 C-2.34 5 -1.68 5 -1 5 C-0.67 3.35 -0.34 1.7 0 0 Z " fill="#3F353D" transform="translate(157,69)"/>
<path d="M0 0 C0.66 0.33 1.32 0.66 2 1 C1.91621094 1.62648437 1.83242187 2.25296875 1.74609375 2.8984375 C1.59333984 4.12433594 1.59333984 4.12433594 1.4375 5.375 C1.33308594 6.18710938 1.22867188 6.99921875 1.12109375 7.8359375 C0.81762672 10.04899186 0.81762672 10.04899186 2 12 C0.68 11.67 -0.64 11.34 -2 11 C-2.28571429 3.57142857 -2.28571429 3.57142857 0 0 Z " fill="#999A98" transform="translate(230,144)"/>
<path d="M0 0 C0 0.66 0 1.32 0 2 C-0.45375 2.433125 -0.9075 2.86625 -1.375 3.3125 C-3.34309231 5.35628817 -4.06726871 7.34530324 -5 10 C-5.66 10 -6.32 10 -7 10 C-6.65125309 4.59442287 -6.65125309 4.59442287 -6 2 C-3.81734379 0.31020164 -2.72785349 0 0 0 Z " fill="#5E5A5B" transform="translate(235,97)"/>
<path d="M0 0 C0.33 0.99 0.66 1.98 1 3 C-3.625 6 -3.625 6 -7 6 C-7 5.67 -7 5.34 -7 5 C-7.66 4.67 -8.32 4.34 -9 4 C-6.02819057 2.10134397 -3.48539917 0.64544429 0 0 Z " fill="#24283E" transform="translate(64,57)"/>
<path d="M0 0 C3.63 0 7.26 0 11 0 C10.67 0.99 10.34 1.98 10 3 C8.02 3.33 6.04 3.66 4 4 C4 3.01 4 2.02 4 1 C2.68 0.67 1.36 0.34 0 0 Z " fill="#DDAB7C" transform="translate(104,107)"/>
<path d="M0 0 C-0.33 1.32 -0.66 2.64 -1 4 C-3.31 3.34 -5.62 2.68 -8 2 C-8 1.34 -8 0.68 -8 0 C-4.71303767 -0.79953138 -3.28976808 -1.09658936 0 0 Z " fill="#271F1D" transform="translate(183,92)"/>
<path d="M0 0 C6.75 -0.125 6.75 -0.125 9 1 C9 1.99 9 2.98 9 4 C4.545 3.01 4.545 3.01 0 2 C0 1.34 0 0.68 0 0 Z " fill="#D1CECB" transform="translate(238,145)"/>
<path d="M0 0 C0.66 0.33 1.32 0.66 2 1 C1.67 2.65 1.34 4.3 1 6 C-0.32 6 -1.64 6 -3 6 C-3 4.35 -3 2.7 -3 1 C-2.01 0.67 -1.02 0.34 0 0 Z " fill="#C8C3C1" transform="translate(227,99)"/>
<path d="M0 0 C0.99 0.33 1.98 0.66 3 1 C2.4140625 7.15234375 2.4140625 7.15234375 2 9 C1.01 9.495 1.01 9.495 0 10 C0 6.7 0 3.4 0 0 Z " fill="#CEC2B5" transform="translate(180,96)"/>
<path d="M0 0 C0.6875 1.6875 0.6875 1.6875 1 4 C-0.55431791 7.18635171 -2.37599478 9.62590004 -5 12 C-5.99 11.67 -6.98 11.34 -8 11 C-7.236875 10.484375 -6.47375 9.96875 -5.6875 9.4375 C-2.38424393 6.44152356 -1.51374274 4.14287486 0 0 Z " fill="#B86A78" transform="translate(229,191)"/>
<path d="M0 0 C7.50769231 0.61538462 7.50769231 0.61538462 10 2.5625 C10.33 3.036875 10.66 3.51125 11 4 C10.01 4.495 10.01 4.495 9 5 C6.8359375 4.22265625 6.8359375 4.22265625 4.375 3.0625 C3.55773437 2.68222656 2.74046875 2.30195313 1.8984375 1.91015625 C1.27195313 1.60980469 0.64546875 1.30945313 0 1 C0 0.67 0 0.34 0 0 Z " fill="#57403D" transform="translate(151,191)"/>
<path d="M0 0 C0.66 0.99 1.32 1.98 2 3 C0.515 5.475 0.515 5.475 -1 8 C-2.32 7.67 -3.64 7.34 -5 7 C-3.625 5 -3.625 5 -2 3 C-1.34 3 -0.68 3 0 3 C0 2.01 0 1.02 0 0 Z " fill="#50454F" transform="translate(91,178)"/>
<path d="M0 0 C2.88437779 1.29299694 4.87219421 2.65941363 7 5 C6.67 5.66 6.34 6.32 6 7 C5.01 6.01 4.02 5.02 3 4 C2.67 5.32 2.34 6.64 2 8 C0.23537317 4.91190305 0 3.76687864 0 0 Z " fill="#AD8761" transform="translate(81,117)"/>
<path d="M0 0 C1.32 0.33 2.64 0.66 4 1 C2.02 3.31 0.04 5.62 -2 8 C-2.66 7.34 -3.32 6.68 -4 6 C-3.01 5.67 -2.02 5.34 -1 5 C-0.67 3.35 -0.34 1.7 0 0 Z " fill="#554A59" transform="translate(207,89)"/>
<path d="M0 0 C0.99 0.99 1.98 1.98 3 3 C1.46126823 6.71860179 0.52488612 7.35633541 -3 10 C-2.01 6.7 -1.02 3.4 0 0 Z " fill="#785642" transform="translate(163,78)"/>
<path d="M0 0 C0.99 0 1.98 0 3 0 C3 1.98 3 3.96 3 6 C2.67 6 2.34 6 2 6 C1.67 7.98 1.34 9.96 1 12 C0.67 12 0.34 12 0 12 C0 8.04 0 4.08 0 0 Z " fill="#C1A9B0" transform="translate(244,44)"/>
<path d="M0 0 C1.32 0 2.64 0 4 0 C3.5359375 1.1446875 3.5359375 1.1446875 3.0625 2.3125 C2.32106407 4.18789677 1.63771783 6.08684652 1 8 C0.34 8 -0.32 8 -1 8 C-0.67 5.36 -0.34 2.72 0 0 Z " fill="#282B3A" transform="translate(155,0)"/>
<path d="M0 0 C7.75 -0.125 7.75 -0.125 10 1 C10 3.31 10 5.62 10 8 C7.64046906 5.64046906 7.50858587 4.22104383 7 1 C4.69 1 2.38 1 0 1 C0 0.67 0 0.34 0 0 Z " fill="#384341" transform="translate(132,101)"/>
<path d="M0 0 C0.8971875 0.309375 0.8971875 0.309375 1.8125 0.625 C-1.39086822 3.45874881 -3.96837253 4.1455537 -8.1875 4.625 C-3.2421875 -0.55580357 -3.2421875 -0.55580357 0 0 Z " fill="#392F37" transform="translate(124.1875,97.375)"/>
<path d="M0 0 C2 1 2 1 3 3 C-2.2734375 6.22265625 -2.2734375 6.22265625 -4 7 C-4.66 6.67 -5.32 6.34 -6 6 C-4.02 4.02 -2.04 2.04 0 0 Z " fill="#81889D" transform="translate(121,51)"/>
<path d="M0 0 C2.375 0.25 2.375 0.25 5 1 C5.66 2.32 6.32 3.64 7 5 C2.545 4.01 2.545 4.01 -2 3 C-1.34 2.01 -0.68 1.02 0 0 Z " fill="#494D62" transform="translate(154,22)"/>
<path d="M0 0 C0 0.33 0 0.66 0 1 C-1.95803507 1.05389087 -3.91648909 1.09274217 -5.875 1.125 C-6.96554688 1.14820312 -8.05609375 1.17140625 -9.1796875 1.1953125 C-12 1 -12 1 -14 -1 C-9.04653013 -2.59789351 -4.86717585 -1.28306814 0 0 Z " fill="#A08772" transform="translate(139,116)"/>
<path d="M0 0 C0.99 0 1.98 0 3 0 C1.86500606 3.29148243 1.00716624 3.9959869 -2.125 5.75 C-3.548125 6.36875 -3.548125 6.36875 -5 7 C-5 6.01 -5 5.02 -5 4 C-4.01 3.67 -3.02 3.34 -2 3 C-1.34 2.01 -0.68 1.02 0 0 Z " fill="#524047" transform="translate(142,86)"/>
<path d="M0 0 C0.66 0 1.32 0 2 0 C1.67 1.98 1.34 3.96 1 6 C-0.98 6.66 -2.96 7.32 -5 8 C-4.21718695 6.66144944 -3.42348123 5.32926356 -2.625 4 C-2.18414062 3.2575 -1.74328125 2.515 -1.2890625 1.75 C-0.86367187 1.1725 -0.43828125 0.595 0 0 Z " fill="#DAAF87" transform="translate(161,78)"/>
<path d="M0 0 C2.64 0.99 5.28 1.98 8 3 C8 2.01 8 1.02 8 0 C8.66 0.33 9.32 0.66 10 1 C9.67 1.99 9.34 2.98 9 4 C6.1875 4.6875 6.1875 4.6875 3 5 C1.125 3.6875 1.125 3.6875 0 2 C0 1.34 0 0.68 0 0 Z " fill="#54586F" transform="translate(178,30)"/>
<path d="M0 0 C1.65 0 3.3 0 5 0 C5.33 1.32 5.66 2.64 6 4 C4.35 3.67 2.7 3.34 1 3 C0.67 2.01 0.34 1.02 0 0 Z " fill="#D5D0CB" transform="translate(196,128)"/>
<path d="M0 0 C-1.0625 1.5625 -1.0625 1.5625 -3 3 C-6.6875 2.6875 -6.6875 2.6875 -10 2 C-7.20652751 -0.79347249 -3.65536205 -1.82768103 0 0 Z " fill="#677986" transform="translate(22,50)"/>
<path d="M0 0 C1.32 0.33 2.64 0.66 4 1 C3.21625 1.598125 2.4325 2.19625 1.625 2.8125 C-1.14574323 4.91085249 -1.14574323 4.91085249 -3 8 C-3 6.02 -3 4.04 -3 2 C-2.01 2 -1.02 2 0 2 C0 1.34 0 0.68 0 0 Z " fill="#553949" transform="translate(194,160)"/>
<path d="M0 0 C2.31 0.66 4.62 1.32 7 2 C5.8125 3.5 5.8125 3.5 4 5 C1.3125 5.1875 1.3125 5.1875 -1 5 C-0.67 3.35 -0.34 1.7 0 0 Z " fill="#5E5257" transform="translate(204,149)"/>
<path d="M0 0 C0 3 0 3 -2.5 5.6875 C-3.325 6.450625 -4.15 7.21375 -5 8 C-5.99 7.67 -6.98 7.34 -8 7 C-5.36 4.69 -2.72 2.38 0 0 Z " fill="#B96977" transform="translate(201,157)"/>
<path d="M0 0 C0 3 0 3 -2 6 C-2.99 6 -3.98 6 -5 6 C-5.33 6.66 -5.66 7.32 -6 8 C-6.66 7.34 -7.32 6.68 -8 6 C-7.05125 5.38125 -6.1025 4.7625 -5.125 4.125 C-2.05554891 2.18029031 -2.05554891 2.18029031 0 0 Z " fill="#574343" transform="translate(171,156)"/>
<path d="M0 0 C2.64 0.33 5.28 0.66 8 1 C7.360625 1.103125 6.72125 1.20625 6.0625 1.3125 C5.0415625 1.6528125 5.0415625 1.6528125 4 2 C3.67 2.99 3.34 3.98 3 5 C2.34 4.67 1.68 4.34 1 4 C0.375 1.9375 0.375 1.9375 0 0 Z " fill="#ADACAA" transform="translate(233,143)"/>
<path d="M0 0 C0.33 0.99 0.66 1.98 1 3 C-0.3125 5.1875 -0.3125 5.1875 -2 7 C-2.66 7 -3.32 7 -4 7 C-3.43628586 3.73045798 -2.50037734 2.17424117 0 0 Z " fill="#5B3D25" transform="translate(118,104)"/>
<path d="M0 0 C0.99 0.33 1.98 0.66 3 1 C-2.625 5 -2.625 5 -6 5 C-6 4.34 -6 3.68 -6 3 C-4.68 3 -3.36 3 -2 3 C-2 2.34 -2 1.68 -2 1 C-1.34 0.67 -0.68 0.34 0 0 Z " fill="#584552" transform="translate(198,100)"/>
<path d="M0 0 C0.33 0.66 0.66 1.32 1 2 C0.06553465 4.03144641 -0.93224776 6.03533587 -2 8 C-3.32 7.67 -4.64 7.34 -6 7 C-4.02 4.69 -2.04 2.38 0 0 Z " fill="#D0A784" transform="translate(155,77)"/>
<path d="M0 0 C0.66 0.99 1.32 1.98 2 3 C1.67 3.66 1.34 4.32 1 5 C-0.32 5 -1.64 5 -3 5 C-3 5.66 -3 6.32 -3 7 C-3.66 6.67 -4.32 6.34 -5 6 C-3.35 4.02 -1.7 2.04 0 0 Z " fill="#5B3D30" transform="translate(175,78)"/>
<path d="M0 0 C0.33 0 0.66 0 1 0 C0.38461538 7.50769231 0.38461538 7.50769231 -1.5625 10 C-2.036875 10.33 -2.51125 10.66 -3 11 C-3 9.35 -3 7.7 -3 6 C-2.34 6 -1.68 6 -1 6 C-0.67 4.02 -0.34 2.04 0 0 Z " fill="#3A3545" transform="translate(179,67)"/>
<path d="M0 0 C0.66 0 1.32 0 2 0 C4.1875 2.8125 4.1875 2.8125 6 6 C5.67 6.99 5.34 7.98 5 9 C2.67527795 6.14693203 1.2491742 3.45925163 0 0 Z " fill="#282940" transform="translate(167,38)"/>
<path d="M0 0 C0.99 0 1.98 0 3 0 C3 2.64 3 5.28 3 8 C2.01 8 1.02 8 0 8 C0 7.34 0 6.68 0 6 C0.66 6 1.32 6 2 6 C1.34 4.02 0.68 2.04 0 0 Z " fill="#959393" transform="translate(244,36)"/>
<path d="M0 0 C1.65 1.32 3.3 2.64 5 4 C4.67 4.99 4.34 5.98 4 7 C2 5.1875 2 5.1875 0 3 C0 2.01 0 1.02 0 0 Z " fill="#E9C29B" transform="translate(83,120)"/>
<path d="M0 0 C1.65 0 3.3 0 5 0 C4.34 1.32 3.68 2.64 3 4 C2.01 4 1.02 4 0 4 C0 2.68 0 1.36 0 0 Z " fill="#D4CFC7" transform="translate(131,102)"/>
</svg>
